<mxfile host="Electron" modified="2024-04-18T08:13:44.711Z" agent="Mozilla/5.0 (Macintosh; Intel Mac OS X 10_15_7) AppleWebKit/537.36 (KHTML, like Gecko) draw.io/24.1.0 Chrome/120.0.6099.109 Electron/28.1.0 Safari/537.36" etag="gZBNq7n6Pm-_XU942pJ_" version="24.1.0" type="device">
  <diagram name="Page-1" id="0qjQd0bIqAvKOakUr5sT">
    <mxGraphModel dx="1434" dy="795" grid="1" gridSize="10" guides="1" tooltips="1" connect="1" arrows="1" fold="1" page="1" pageScale="1" pageWidth="850" pageHeight="1100" math="0" shadow="0">
      <root>
        <mxCell id="0" />
        <mxCell id="1" parent="0" />
        <mxCell id="B33dUFEOLYse5lPXIUkT-2" value="" style="shape=flexArrow;endArrow=classic;html=1;rounded=0;strokeColor=none;fillColor=#c6c3c3;gradientColor=#faf4f4;shadow=0;" parent="1" edge="1">
          <mxGeometry width="50" height="50" relative="1" as="geometry">
            <mxPoint x="220" y="284.5" as="sourcePoint" />
            <mxPoint x="280" y="285" as="targetPoint" />
          </mxGeometry>
        </mxCell>
        <mxCell id="qiMS5X3NjVRDsY-8KbQ8-77" value="" style="shape=table;startSize=0;container=1;collapsible=0;childLayout=tableLayout;" parent="1" vertex="1">
          <mxGeometry x="300" y="230" width="140" height="110" as="geometry" />
        </mxCell>
        <mxCell id="qiMS5X3NjVRDsY-8KbQ8-144" style="shape=tableRow;horizontal=0;startSize=0;swimlaneHead=0;swimlaneBody=0;strokeColor=inherit;top=0;left=0;bottom=0;right=0;collapsible=0;dropTarget=0;fillColor=none;points=[[0,0.5],[1,0.5]];portConstraint=eastwest;" parent="qiMS5X3NjVRDsY-8KbQ8-77" vertex="1">
          <mxGeometry width="140" height="16" as="geometry" />
        </mxCell>
        <mxCell id="qiMS5X3NjVRDsY-8KbQ8-145" style="shape=partialRectangle;html=1;whiteSpace=wrap;connectable=0;strokeColor=#6c8ebf;overflow=hidden;fillColor=#a0b8d9;top=0;left=0;bottom=0;right=0;pointerEvents=1;" parent="qiMS5X3NjVRDsY-8KbQ8-144" vertex="1">
          <mxGeometry width="14" height="16" as="geometry">
            <mxRectangle width="14" height="16" as="alternateBounds" />
          </mxGeometry>
        </mxCell>
        <mxCell id="qiMS5X3NjVRDsY-8KbQ8-146" style="shape=partialRectangle;html=1;whiteSpace=wrap;connectable=0;strokeColor=#6c8ebf;overflow=hidden;fillColor=#a0b8d9;top=0;left=0;bottom=0;right=0;pointerEvents=1;" parent="qiMS5X3NjVRDsY-8KbQ8-144" vertex="1">
          <mxGeometry x="14" width="14" height="16" as="geometry">
            <mxRectangle width="14" height="16" as="alternateBounds" />
          </mxGeometry>
        </mxCell>
        <mxCell id="qiMS5X3NjVRDsY-8KbQ8-147" style="shape=partialRectangle;html=1;whiteSpace=wrap;connectable=0;strokeColor=#6c8ebf;overflow=hidden;fillColor=#a0b8d9;top=0;left=0;bottom=0;right=0;pointerEvents=1;" parent="qiMS5X3NjVRDsY-8KbQ8-144" vertex="1">
          <mxGeometry x="28" width="14" height="16" as="geometry">
            <mxRectangle width="14" height="16" as="alternateBounds" />
          </mxGeometry>
        </mxCell>
        <mxCell id="qiMS5X3NjVRDsY-8KbQ8-148" style="shape=partialRectangle;html=1;whiteSpace=wrap;connectable=0;strokeColor=#6c8ebf;overflow=hidden;fillColor=#a0b8d9;top=0;left=0;bottom=0;right=0;pointerEvents=1;" parent="qiMS5X3NjVRDsY-8KbQ8-144" vertex="1">
          <mxGeometry x="42" width="14" height="16" as="geometry">
            <mxRectangle width="14" height="16" as="alternateBounds" />
          </mxGeometry>
        </mxCell>
        <mxCell id="qiMS5X3NjVRDsY-8KbQ8-149" style="shape=partialRectangle;html=1;whiteSpace=wrap;connectable=0;strokeColor=#6c8ebf;overflow=hidden;fillColor=#a0b8d9;top=0;left=0;bottom=0;right=0;pointerEvents=1;" parent="qiMS5X3NjVRDsY-8KbQ8-144" vertex="1">
          <mxGeometry x="56" width="14" height="16" as="geometry">
            <mxRectangle width="14" height="16" as="alternateBounds" />
          </mxGeometry>
        </mxCell>
        <mxCell id="qiMS5X3NjVRDsY-8KbQ8-150" style="shape=partialRectangle;html=1;whiteSpace=wrap;connectable=0;overflow=hidden;top=0;left=0;bottom=0;right=0;pointerEvents=1;fillColor=#dae8fc;strokeColor=#6c8ebf;" parent="qiMS5X3NjVRDsY-8KbQ8-144" vertex="1">
          <mxGeometry x="70" width="14" height="16" as="geometry">
            <mxRectangle width="14" height="16" as="alternateBounds" />
          </mxGeometry>
        </mxCell>
        <mxCell id="qiMS5X3NjVRDsY-8KbQ8-151" style="shape=partialRectangle;html=1;whiteSpace=wrap;connectable=0;overflow=hidden;top=0;left=0;bottom=0;right=0;pointerEvents=1;" parent="qiMS5X3NjVRDsY-8KbQ8-144" vertex="1">
          <mxGeometry x="84" width="14" height="16" as="geometry">
            <mxRectangle width="14" height="16" as="alternateBounds" />
          </mxGeometry>
        </mxCell>
        <mxCell id="qiMS5X3NjVRDsY-8KbQ8-152" style="shape=partialRectangle;html=1;whiteSpace=wrap;connectable=0;overflow=hidden;top=0;left=0;bottom=0;right=0;pointerEvents=1;" parent="qiMS5X3NjVRDsY-8KbQ8-144" vertex="1">
          <mxGeometry x="98" width="14" height="16" as="geometry">
            <mxRectangle width="14" height="16" as="alternateBounds" />
          </mxGeometry>
        </mxCell>
        <mxCell id="qiMS5X3NjVRDsY-8KbQ8-153" style="shape=partialRectangle;html=1;whiteSpace=wrap;connectable=0;overflow=hidden;top=0;left=0;bottom=0;right=0;pointerEvents=1;" parent="qiMS5X3NjVRDsY-8KbQ8-144" vertex="1">
          <mxGeometry x="112" width="14" height="16" as="geometry">
            <mxRectangle width="14" height="16" as="alternateBounds" />
          </mxGeometry>
        </mxCell>
        <mxCell id="qiMS5X3NjVRDsY-8KbQ8-154" style="shape=partialRectangle;html=1;whiteSpace=wrap;connectable=0;overflow=hidden;top=0;left=0;bottom=0;right=0;pointerEvents=1;" parent="qiMS5X3NjVRDsY-8KbQ8-144" vertex="1">
          <mxGeometry x="126" width="14" height="16" as="geometry">
            <mxRectangle width="14" height="16" as="alternateBounds" />
          </mxGeometry>
        </mxCell>
        <mxCell id="qiMS5X3NjVRDsY-8KbQ8-78" value="" style="shape=tableRow;horizontal=0;startSize=0;swimlaneHead=0;swimlaneBody=0;strokeColor=inherit;top=0;left=0;bottom=0;right=0;collapsible=0;dropTarget=0;fillColor=none;points=[[0,0.5],[1,0.5]];portConstraint=eastwest;" parent="qiMS5X3NjVRDsY-8KbQ8-77" vertex="1">
          <mxGeometry y="16" width="140" height="14" as="geometry" />
        </mxCell>
        <mxCell id="qiMS5X3NjVRDsY-8KbQ8-79" value="" style="shape=partialRectangle;html=1;whiteSpace=wrap;connectable=0;strokeColor=#6c8ebf;overflow=hidden;fillColor=#a0b8d9;top=0;left=0;bottom=0;right=0;pointerEvents=1;" parent="qiMS5X3NjVRDsY-8KbQ8-78" vertex="1">
          <mxGeometry width="14" height="14" as="geometry">
            <mxRectangle width="14" height="14" as="alternateBounds" />
          </mxGeometry>
        </mxCell>
        <mxCell id="qiMS5X3NjVRDsY-8KbQ8-80" value="" style="shape=partialRectangle;html=1;whiteSpace=wrap;connectable=0;strokeColor=#6c8ebf;overflow=hidden;fillColor=#a0b8d9;top=0;left=0;bottom=0;right=0;pointerEvents=1;" parent="qiMS5X3NjVRDsY-8KbQ8-78" vertex="1">
          <mxGeometry x="14" width="14" height="14" as="geometry">
            <mxRectangle width="14" height="14" as="alternateBounds" />
          </mxGeometry>
        </mxCell>
        <mxCell id="qiMS5X3NjVRDsY-8KbQ8-81" value="" style="shape=partialRectangle;html=1;whiteSpace=wrap;connectable=0;strokeColor=#6c8ebf;overflow=hidden;fillColor=#a0b8d9;top=0;left=0;bottom=0;right=0;pointerEvents=1;" parent="qiMS5X3NjVRDsY-8KbQ8-78" vertex="1">
          <mxGeometry x="28" width="14" height="14" as="geometry">
            <mxRectangle width="14" height="14" as="alternateBounds" />
          </mxGeometry>
        </mxCell>
        <mxCell id="qiMS5X3NjVRDsY-8KbQ8-82" value="" style="shape=partialRectangle;html=1;whiteSpace=wrap;connectable=0;strokeColor=#6c8ebf;overflow=hidden;fillColor=#a0b8d9;top=0;left=0;bottom=0;right=0;pointerEvents=1;" parent="qiMS5X3NjVRDsY-8KbQ8-78" vertex="1">
          <mxGeometry x="42" width="14" height="14" as="geometry">
            <mxRectangle width="14" height="14" as="alternateBounds" />
          </mxGeometry>
        </mxCell>
        <mxCell id="qiMS5X3NjVRDsY-8KbQ8-83" value="" style="shape=partialRectangle;html=1;whiteSpace=wrap;connectable=0;strokeColor=#6c8ebf;overflow=hidden;fillColor=#a0b8d9;top=0;left=0;bottom=0;right=0;pointerEvents=1;" parent="qiMS5X3NjVRDsY-8KbQ8-78" vertex="1">
          <mxGeometry x="56" width="14" height="14" as="geometry">
            <mxRectangle width="14" height="14" as="alternateBounds" />
          </mxGeometry>
        </mxCell>
        <mxCell id="qiMS5X3NjVRDsY-8KbQ8-84" value="" style="shape=partialRectangle;html=1;whiteSpace=wrap;connectable=0;overflow=hidden;top=0;left=0;bottom=0;right=0;pointerEvents=1;fillColor=#dae8fc;strokeColor=#6c8ebf;" parent="qiMS5X3NjVRDsY-8KbQ8-78" vertex="1">
          <mxGeometry x="70" width="14" height="14" as="geometry">
            <mxRectangle width="14" height="14" as="alternateBounds" />
          </mxGeometry>
        </mxCell>
        <mxCell id="qiMS5X3NjVRDsY-8KbQ8-85" value="" style="shape=partialRectangle;html=1;whiteSpace=wrap;connectable=0;overflow=hidden;top=0;left=0;bottom=0;right=0;pointerEvents=1;" parent="qiMS5X3NjVRDsY-8KbQ8-78" vertex="1">
          <mxGeometry x="84" width="14" height="14" as="geometry">
            <mxRectangle width="14" height="14" as="alternateBounds" />
          </mxGeometry>
        </mxCell>
        <mxCell id="qiMS5X3NjVRDsY-8KbQ8-86" value="" style="shape=partialRectangle;html=1;whiteSpace=wrap;connectable=0;overflow=hidden;top=0;left=0;bottom=0;right=0;pointerEvents=1;" parent="qiMS5X3NjVRDsY-8KbQ8-78" vertex="1">
          <mxGeometry x="98" width="14" height="14" as="geometry">
            <mxRectangle width="14" height="14" as="alternateBounds" />
          </mxGeometry>
        </mxCell>
        <mxCell id="qiMS5X3NjVRDsY-8KbQ8-87" value="" style="shape=partialRectangle;html=1;whiteSpace=wrap;connectable=0;overflow=hidden;top=0;left=0;bottom=0;right=0;pointerEvents=1;" parent="qiMS5X3NjVRDsY-8KbQ8-78" vertex="1">
          <mxGeometry x="112" width="14" height="14" as="geometry">
            <mxRectangle width="14" height="14" as="alternateBounds" />
          </mxGeometry>
        </mxCell>
        <mxCell id="qiMS5X3NjVRDsY-8KbQ8-88" value="" style="shape=partialRectangle;html=1;whiteSpace=wrap;connectable=0;overflow=hidden;top=0;left=0;bottom=0;right=0;pointerEvents=1;" parent="qiMS5X3NjVRDsY-8KbQ8-78" vertex="1">
          <mxGeometry x="126" width="14" height="14" as="geometry">
            <mxRectangle width="14" height="14" as="alternateBounds" />
          </mxGeometry>
        </mxCell>
        <mxCell id="qiMS5X3NjVRDsY-8KbQ8-89" value="" style="shape=tableRow;horizontal=0;startSize=0;swimlaneHead=0;swimlaneBody=0;strokeColor=inherit;top=0;left=0;bottom=0;right=0;collapsible=0;dropTarget=0;fillColor=none;points=[[0,0.5],[1,0.5]];portConstraint=eastwest;" parent="qiMS5X3NjVRDsY-8KbQ8-77" vertex="1">
          <mxGeometry y="30" width="140" height="16" as="geometry" />
        </mxCell>
        <mxCell id="qiMS5X3NjVRDsY-8KbQ8-90" value="" style="shape=partialRectangle;html=1;whiteSpace=wrap;connectable=0;strokeColor=#6c8ebf;overflow=hidden;fillColor=#a0b8d9;top=0;left=0;bottom=0;right=0;pointerEvents=1;" parent="qiMS5X3NjVRDsY-8KbQ8-89" vertex="1">
          <mxGeometry width="14" height="16" as="geometry">
            <mxRectangle width="14" height="16" as="alternateBounds" />
          </mxGeometry>
        </mxCell>
        <mxCell id="qiMS5X3NjVRDsY-8KbQ8-91" value="" style="shape=partialRectangle;html=1;whiteSpace=wrap;connectable=0;strokeColor=#6c8ebf;overflow=hidden;fillColor=#a0b8d9;top=0;left=0;bottom=0;right=0;pointerEvents=1;" parent="qiMS5X3NjVRDsY-8KbQ8-89" vertex="1">
          <mxGeometry x="14" width="14" height="16" as="geometry">
            <mxRectangle width="14" height="16" as="alternateBounds" />
          </mxGeometry>
        </mxCell>
        <mxCell id="qiMS5X3NjVRDsY-8KbQ8-92" value="" style="shape=partialRectangle;html=1;whiteSpace=wrap;connectable=0;strokeColor=#6c8ebf;overflow=hidden;fillColor=#a0b8d9;top=0;left=0;bottom=0;right=0;pointerEvents=1;" parent="qiMS5X3NjVRDsY-8KbQ8-89" vertex="1">
          <mxGeometry x="28" width="14" height="16" as="geometry">
            <mxRectangle width="14" height="16" as="alternateBounds" />
          </mxGeometry>
        </mxCell>
        <mxCell id="qiMS5X3NjVRDsY-8KbQ8-93" value="" style="shape=partialRectangle;html=1;whiteSpace=wrap;connectable=0;strokeColor=#6c8ebf;overflow=hidden;fillColor=#a0b8d9;top=0;left=0;bottom=0;right=0;pointerEvents=1;" parent="qiMS5X3NjVRDsY-8KbQ8-89" vertex="1">
          <mxGeometry x="42" width="14" height="16" as="geometry">
            <mxRectangle width="14" height="16" as="alternateBounds" />
          </mxGeometry>
        </mxCell>
        <mxCell id="qiMS5X3NjVRDsY-8KbQ8-94" value="" style="shape=partialRectangle;html=1;whiteSpace=wrap;connectable=0;strokeColor=#6c8ebf;overflow=hidden;fillColor=#a0b8d9;top=0;left=0;bottom=0;right=0;pointerEvents=1;" parent="qiMS5X3NjVRDsY-8KbQ8-89" vertex="1">
          <mxGeometry x="56" width="14" height="16" as="geometry">
            <mxRectangle width="14" height="16" as="alternateBounds" />
          </mxGeometry>
        </mxCell>
        <mxCell id="qiMS5X3NjVRDsY-8KbQ8-95" value="" style="shape=partialRectangle;html=1;whiteSpace=wrap;connectable=0;overflow=hidden;top=0;left=0;bottom=0;right=0;pointerEvents=1;fillColor=#dae8fc;strokeColor=#6c8ebf;" parent="qiMS5X3NjVRDsY-8KbQ8-89" vertex="1">
          <mxGeometry x="70" width="14" height="16" as="geometry">
            <mxRectangle width="14" height="16" as="alternateBounds" />
          </mxGeometry>
        </mxCell>
        <mxCell id="qiMS5X3NjVRDsY-8KbQ8-96" value="" style="shape=partialRectangle;html=1;whiteSpace=wrap;connectable=0;overflow=hidden;top=0;left=0;bottom=0;right=0;pointerEvents=1;" parent="qiMS5X3NjVRDsY-8KbQ8-89" vertex="1">
          <mxGeometry x="84" width="14" height="16" as="geometry">
            <mxRectangle width="14" height="16" as="alternateBounds" />
          </mxGeometry>
        </mxCell>
        <mxCell id="qiMS5X3NjVRDsY-8KbQ8-97" value="" style="shape=partialRectangle;html=1;whiteSpace=wrap;connectable=0;overflow=hidden;top=0;left=0;bottom=0;right=0;pointerEvents=1;" parent="qiMS5X3NjVRDsY-8KbQ8-89" vertex="1">
          <mxGeometry x="98" width="14" height="16" as="geometry">
            <mxRectangle width="14" height="16" as="alternateBounds" />
          </mxGeometry>
        </mxCell>
        <mxCell id="qiMS5X3NjVRDsY-8KbQ8-98" value="" style="shape=partialRectangle;html=1;whiteSpace=wrap;connectable=0;overflow=hidden;top=0;left=0;bottom=0;right=0;pointerEvents=1;" parent="qiMS5X3NjVRDsY-8KbQ8-89" vertex="1">
          <mxGeometry x="112" width="14" height="16" as="geometry">
            <mxRectangle width="14" height="16" as="alternateBounds" />
          </mxGeometry>
        </mxCell>
        <mxCell id="qiMS5X3NjVRDsY-8KbQ8-99" value="" style="shape=partialRectangle;html=1;whiteSpace=wrap;connectable=0;overflow=hidden;top=0;left=0;bottom=0;right=0;pointerEvents=1;" parent="qiMS5X3NjVRDsY-8KbQ8-89" vertex="1">
          <mxGeometry x="126" width="14" height="16" as="geometry">
            <mxRectangle width="14" height="16" as="alternateBounds" />
          </mxGeometry>
        </mxCell>
        <mxCell id="qiMS5X3NjVRDsY-8KbQ8-100" value="" style="shape=tableRow;horizontal=0;startSize=0;swimlaneHead=0;swimlaneBody=0;strokeColor=inherit;top=0;left=0;bottom=0;right=0;collapsible=0;dropTarget=0;fillColor=none;points=[[0,0.5],[1,0.5]];portConstraint=eastwest;" parent="qiMS5X3NjVRDsY-8KbQ8-77" vertex="1">
          <mxGeometry y="46" width="140" height="16" as="geometry" />
        </mxCell>
        <mxCell id="qiMS5X3NjVRDsY-8KbQ8-101" value="" style="shape=partialRectangle;html=1;whiteSpace=wrap;connectable=0;strokeColor=#6c8ebf;overflow=hidden;fillColor=#a0b8d9;top=0;left=0;bottom=0;right=0;pointerEvents=1;" parent="qiMS5X3NjVRDsY-8KbQ8-100" vertex="1">
          <mxGeometry width="14" height="16" as="geometry">
            <mxRectangle width="14" height="16" as="alternateBounds" />
          </mxGeometry>
        </mxCell>
        <mxCell id="qiMS5X3NjVRDsY-8KbQ8-102" value="" style="shape=partialRectangle;html=1;whiteSpace=wrap;connectable=0;strokeColor=#6c8ebf;overflow=hidden;fillColor=#a0b8d9;top=0;left=0;bottom=0;right=0;pointerEvents=1;" parent="qiMS5X3NjVRDsY-8KbQ8-100" vertex="1">
          <mxGeometry x="14" width="14" height="16" as="geometry">
            <mxRectangle width="14" height="16" as="alternateBounds" />
          </mxGeometry>
        </mxCell>
        <mxCell id="qiMS5X3NjVRDsY-8KbQ8-103" value="" style="shape=partialRectangle;html=1;whiteSpace=wrap;connectable=0;overflow=hidden;top=0;left=0;bottom=0;right=0;pointerEvents=1;fillColor=#a0b8d9;strokeColor=#6c8ebf;" parent="qiMS5X3NjVRDsY-8KbQ8-100" vertex="1">
          <mxGeometry x="28" width="14" height="16" as="geometry">
            <mxRectangle width="14" height="16" as="alternateBounds" />
          </mxGeometry>
        </mxCell>
        <mxCell id="qiMS5X3NjVRDsY-8KbQ8-104" value="" style="shape=partialRectangle;html=1;whiteSpace=wrap;connectable=0;strokeColor=#6c8ebf;overflow=hidden;fillColor=#a0b8d9;top=0;left=0;bottom=0;right=0;pointerEvents=1;" parent="qiMS5X3NjVRDsY-8KbQ8-100" vertex="1">
          <mxGeometry x="42" width="14" height="16" as="geometry">
            <mxRectangle width="14" height="16" as="alternateBounds" />
          </mxGeometry>
        </mxCell>
        <mxCell id="qiMS5X3NjVRDsY-8KbQ8-105" value="" style="shape=partialRectangle;html=1;whiteSpace=wrap;connectable=0;strokeColor=#6c8ebf;overflow=hidden;fillColor=#a0b8d9;top=0;left=0;bottom=0;right=0;pointerEvents=1;" parent="qiMS5X3NjVRDsY-8KbQ8-100" vertex="1">
          <mxGeometry x="56" width="14" height="16" as="geometry">
            <mxRectangle width="14" height="16" as="alternateBounds" />
          </mxGeometry>
        </mxCell>
        <mxCell id="qiMS5X3NjVRDsY-8KbQ8-106" value="" style="shape=partialRectangle;html=1;whiteSpace=wrap;connectable=0;overflow=hidden;top=0;left=0;bottom=0;right=0;pointerEvents=1;fillColor=#dae8fc;strokeColor=#6c8ebf;" parent="qiMS5X3NjVRDsY-8KbQ8-100" vertex="1">
          <mxGeometry x="70" width="14" height="16" as="geometry">
            <mxRectangle width="14" height="16" as="alternateBounds" />
          </mxGeometry>
        </mxCell>
        <mxCell id="qiMS5X3NjVRDsY-8KbQ8-107" value="" style="shape=partialRectangle;html=1;whiteSpace=wrap;connectable=0;overflow=hidden;top=0;left=0;bottom=0;right=0;pointerEvents=1;" parent="qiMS5X3NjVRDsY-8KbQ8-100" vertex="1">
          <mxGeometry x="84" width="14" height="16" as="geometry">
            <mxRectangle width="14" height="16" as="alternateBounds" />
          </mxGeometry>
        </mxCell>
        <mxCell id="qiMS5X3NjVRDsY-8KbQ8-108" value="" style="shape=partialRectangle;html=1;whiteSpace=wrap;connectable=0;overflow=hidden;top=0;left=0;bottom=0;right=0;pointerEvents=1;" parent="qiMS5X3NjVRDsY-8KbQ8-100" vertex="1">
          <mxGeometry x="98" width="14" height="16" as="geometry">
            <mxRectangle width="14" height="16" as="alternateBounds" />
          </mxGeometry>
        </mxCell>
        <mxCell id="qiMS5X3NjVRDsY-8KbQ8-109" value="" style="shape=partialRectangle;html=1;whiteSpace=wrap;connectable=0;overflow=hidden;top=0;left=0;bottom=0;right=0;pointerEvents=1;" parent="qiMS5X3NjVRDsY-8KbQ8-100" vertex="1">
          <mxGeometry x="112" width="14" height="16" as="geometry">
            <mxRectangle width="14" height="16" as="alternateBounds" />
          </mxGeometry>
        </mxCell>
        <mxCell id="qiMS5X3NjVRDsY-8KbQ8-110" value="" style="shape=partialRectangle;html=1;whiteSpace=wrap;connectable=0;overflow=hidden;top=0;left=0;bottom=0;right=0;pointerEvents=1;" parent="qiMS5X3NjVRDsY-8KbQ8-100" vertex="1">
          <mxGeometry x="126" width="14" height="16" as="geometry">
            <mxRectangle width="14" height="16" as="alternateBounds" />
          </mxGeometry>
        </mxCell>
        <mxCell id="qiMS5X3NjVRDsY-8KbQ8-111" value="" style="shape=tableRow;horizontal=0;startSize=0;swimlaneHead=0;swimlaneBody=0;strokeColor=inherit;top=0;left=0;bottom=0;right=0;collapsible=0;dropTarget=0;fillColor=none;points=[[0,0.5],[1,0.5]];portConstraint=eastwest;" parent="qiMS5X3NjVRDsY-8KbQ8-77" vertex="1">
          <mxGeometry y="62" width="140" height="16" as="geometry" />
        </mxCell>
        <mxCell id="qiMS5X3NjVRDsY-8KbQ8-112" value="" style="shape=partialRectangle;html=1;whiteSpace=wrap;connectable=0;overflow=hidden;top=0;left=0;bottom=0;right=0;pointerEvents=1;fillColor=#dae8fc;strokeColor=#6c8ebf;" parent="qiMS5X3NjVRDsY-8KbQ8-111" vertex="1">
          <mxGeometry width="14" height="16" as="geometry">
            <mxRectangle width="14" height="16" as="alternateBounds" />
          </mxGeometry>
        </mxCell>
        <mxCell id="qiMS5X3NjVRDsY-8KbQ8-113" value="" style="shape=partialRectangle;html=1;whiteSpace=wrap;connectable=0;overflow=hidden;top=0;left=0;bottom=0;right=0;pointerEvents=1;fillColor=#dae8fc;strokeColor=#6c8ebf;" parent="qiMS5X3NjVRDsY-8KbQ8-111" vertex="1">
          <mxGeometry x="14" width="14" height="16" as="geometry">
            <mxRectangle width="14" height="16" as="alternateBounds" />
          </mxGeometry>
        </mxCell>
        <mxCell id="qiMS5X3NjVRDsY-8KbQ8-114" value="" style="shape=partialRectangle;html=1;whiteSpace=wrap;connectable=0;overflow=hidden;top=0;left=0;bottom=0;right=0;pointerEvents=1;fillColor=#dae8fc;strokeColor=#6c8ebf;" parent="qiMS5X3NjVRDsY-8KbQ8-111" vertex="1">
          <mxGeometry x="28" width="14" height="16" as="geometry">
            <mxRectangle width="14" height="16" as="alternateBounds" />
          </mxGeometry>
        </mxCell>
        <mxCell id="qiMS5X3NjVRDsY-8KbQ8-115" value="" style="shape=partialRectangle;html=1;whiteSpace=wrap;connectable=0;overflow=hidden;top=0;left=0;bottom=0;right=0;pointerEvents=1;fillColor=#dae8fc;strokeColor=#6c8ebf;" parent="qiMS5X3NjVRDsY-8KbQ8-111" vertex="1">
          <mxGeometry x="42" width="14" height="16" as="geometry">
            <mxRectangle width="14" height="16" as="alternateBounds" />
          </mxGeometry>
        </mxCell>
        <mxCell id="qiMS5X3NjVRDsY-8KbQ8-116" value="" style="shape=partialRectangle;html=1;whiteSpace=wrap;connectable=0;overflow=hidden;top=0;left=0;bottom=0;right=0;pointerEvents=1;fillColor=#dae8fc;strokeColor=#6c8ebf;" parent="qiMS5X3NjVRDsY-8KbQ8-111" vertex="1">
          <mxGeometry x="56" width="14" height="16" as="geometry">
            <mxRectangle width="14" height="16" as="alternateBounds" />
          </mxGeometry>
        </mxCell>
        <mxCell id="qiMS5X3NjVRDsY-8KbQ8-117" value="" style="shape=partialRectangle;html=1;whiteSpace=wrap;connectable=0;overflow=hidden;top=0;left=0;bottom=0;right=0;pointerEvents=1;fillColor=#dae8fc;strokeColor=#6c8ebf;" parent="qiMS5X3NjVRDsY-8KbQ8-111" vertex="1">
          <mxGeometry x="70" width="14" height="16" as="geometry">
            <mxRectangle width="14" height="16" as="alternateBounds" />
          </mxGeometry>
        </mxCell>
        <mxCell id="qiMS5X3NjVRDsY-8KbQ8-118" value="" style="shape=partialRectangle;html=1;whiteSpace=wrap;connectable=0;overflow=hidden;top=0;left=0;bottom=0;right=0;pointerEvents=1;fillColor=#fff2cc;strokeColor=#d6b656;" parent="qiMS5X3NjVRDsY-8KbQ8-111" vertex="1">
          <mxGeometry x="84" width="14" height="16" as="geometry">
            <mxRectangle width="14" height="16" as="alternateBounds" />
          </mxGeometry>
        </mxCell>
        <mxCell id="qiMS5X3NjVRDsY-8KbQ8-119" value="" style="shape=partialRectangle;html=1;whiteSpace=wrap;connectable=0;overflow=hidden;top=0;left=0;bottom=0;right=0;pointerEvents=1;fillColor=#fff2cc;strokeColor=#d6b656;" parent="qiMS5X3NjVRDsY-8KbQ8-111" vertex="1">
          <mxGeometry x="98" width="14" height="16" as="geometry">
            <mxRectangle width="14" height="16" as="alternateBounds" />
          </mxGeometry>
        </mxCell>
        <mxCell id="qiMS5X3NjVRDsY-8KbQ8-120" value="" style="shape=partialRectangle;html=1;whiteSpace=wrap;connectable=0;overflow=hidden;top=0;left=0;bottom=0;right=0;pointerEvents=1;fillColor=#fff2cc;strokeColor=#d6b656;" parent="qiMS5X3NjVRDsY-8KbQ8-111" vertex="1">
          <mxGeometry x="112" width="14" height="16" as="geometry">
            <mxRectangle width="14" height="16" as="alternateBounds" />
          </mxGeometry>
        </mxCell>
        <mxCell id="qiMS5X3NjVRDsY-8KbQ8-121" value="" style="shape=partialRectangle;html=1;whiteSpace=wrap;connectable=0;overflow=hidden;top=0;left=0;bottom=0;right=0;pointerEvents=1;fillColor=#fff2cc;strokeColor=#d6b656;" parent="qiMS5X3NjVRDsY-8KbQ8-111" vertex="1">
          <mxGeometry x="126" width="14" height="16" as="geometry">
            <mxRectangle width="14" height="16" as="alternateBounds" />
          </mxGeometry>
        </mxCell>
        <mxCell id="qiMS5X3NjVRDsY-8KbQ8-122" value="" style="shape=tableRow;horizontal=0;startSize=0;swimlaneHead=0;swimlaneBody=0;strokeColor=inherit;top=0;left=0;bottom=0;right=0;collapsible=0;dropTarget=0;fillColor=none;points=[[0,0.5],[1,0.5]];portConstraint=eastwest;" parent="qiMS5X3NjVRDsY-8KbQ8-77" vertex="1">
          <mxGeometry y="78" width="140" height="14" as="geometry" />
        </mxCell>
        <mxCell id="qiMS5X3NjVRDsY-8KbQ8-123" value="" style="shape=partialRectangle;html=1;whiteSpace=wrap;connectable=0;overflow=hidden;top=0;left=0;bottom=0;right=0;pointerEvents=1;" parent="qiMS5X3NjVRDsY-8KbQ8-122" vertex="1">
          <mxGeometry width="14" height="14" as="geometry">
            <mxRectangle width="14" height="14" as="alternateBounds" />
          </mxGeometry>
        </mxCell>
        <mxCell id="qiMS5X3NjVRDsY-8KbQ8-124" value="" style="shape=partialRectangle;html=1;whiteSpace=wrap;connectable=0;overflow=hidden;top=0;left=0;bottom=0;right=0;pointerEvents=1;" parent="qiMS5X3NjVRDsY-8KbQ8-122" vertex="1">
          <mxGeometry x="14" width="14" height="14" as="geometry">
            <mxRectangle width="14" height="14" as="alternateBounds" />
          </mxGeometry>
        </mxCell>
        <mxCell id="qiMS5X3NjVRDsY-8KbQ8-125" value="" style="shape=partialRectangle;html=1;whiteSpace=wrap;connectable=0;overflow=hidden;top=0;left=0;bottom=0;right=0;pointerEvents=1;" parent="qiMS5X3NjVRDsY-8KbQ8-122" vertex="1">
          <mxGeometry x="28" width="14" height="14" as="geometry">
            <mxRectangle width="14" height="14" as="alternateBounds" />
          </mxGeometry>
        </mxCell>
        <mxCell id="qiMS5X3NjVRDsY-8KbQ8-126" value="" style="shape=partialRectangle;html=1;whiteSpace=wrap;connectable=0;overflow=hidden;top=0;left=0;bottom=0;right=0;pointerEvents=1;" parent="qiMS5X3NjVRDsY-8KbQ8-122" vertex="1">
          <mxGeometry x="42" width="14" height="14" as="geometry">
            <mxRectangle width="14" height="14" as="alternateBounds" />
          </mxGeometry>
        </mxCell>
        <mxCell id="qiMS5X3NjVRDsY-8KbQ8-127" value="" style="shape=partialRectangle;html=1;whiteSpace=wrap;connectable=0;overflow=hidden;top=0;left=0;bottom=0;right=0;pointerEvents=1;" parent="qiMS5X3NjVRDsY-8KbQ8-122" vertex="1">
          <mxGeometry x="56" width="14" height="14" as="geometry">
            <mxRectangle width="14" height="14" as="alternateBounds" />
          </mxGeometry>
        </mxCell>
        <mxCell id="qiMS5X3NjVRDsY-8KbQ8-128" value="" style="shape=partialRectangle;html=1;whiteSpace=wrap;connectable=0;overflow=hidden;top=0;left=0;bottom=0;right=0;pointerEvents=1;fillColor=#fff2cc;strokeColor=#d6b656;" parent="qiMS5X3NjVRDsY-8KbQ8-122" vertex="1">
          <mxGeometry x="70" width="14" height="14" as="geometry">
            <mxRectangle width="14" height="14" as="alternateBounds" />
          </mxGeometry>
        </mxCell>
        <mxCell id="qiMS5X3NjVRDsY-8KbQ8-129" value="" style="shape=partialRectangle;html=1;whiteSpace=wrap;connectable=0;overflow=hidden;top=0;left=0;bottom=0;right=0;pointerEvents=1;" parent="qiMS5X3NjVRDsY-8KbQ8-122" vertex="1">
          <mxGeometry x="84" width="14" height="14" as="geometry">
            <mxRectangle width="14" height="14" as="alternateBounds" />
          </mxGeometry>
        </mxCell>
        <mxCell id="qiMS5X3NjVRDsY-8KbQ8-130" value="" style="shape=partialRectangle;html=1;whiteSpace=wrap;connectable=0;overflow=hidden;top=0;left=0;bottom=0;right=0;pointerEvents=1;" parent="qiMS5X3NjVRDsY-8KbQ8-122" vertex="1">
          <mxGeometry x="98" width="14" height="14" as="geometry">
            <mxRectangle width="14" height="14" as="alternateBounds" />
          </mxGeometry>
        </mxCell>
        <mxCell id="qiMS5X3NjVRDsY-8KbQ8-131" value="" style="shape=partialRectangle;html=1;whiteSpace=wrap;connectable=0;overflow=hidden;top=0;left=0;bottom=0;right=0;pointerEvents=1;" parent="qiMS5X3NjVRDsY-8KbQ8-122" vertex="1">
          <mxGeometry x="112" width="14" height="14" as="geometry">
            <mxRectangle width="14" height="14" as="alternateBounds" />
          </mxGeometry>
        </mxCell>
        <mxCell id="qiMS5X3NjVRDsY-8KbQ8-132" value="" style="shape=partialRectangle;html=1;whiteSpace=wrap;connectable=0;overflow=hidden;top=0;left=0;bottom=0;right=0;pointerEvents=1;" parent="qiMS5X3NjVRDsY-8KbQ8-122" vertex="1">
          <mxGeometry x="126" width="14" height="14" as="geometry">
            <mxRectangle width="14" height="14" as="alternateBounds" />
          </mxGeometry>
        </mxCell>
        <mxCell id="qiMS5X3NjVRDsY-8KbQ8-133" value="" style="shape=tableRow;horizontal=0;startSize=0;swimlaneHead=0;swimlaneBody=0;strokeColor=inherit;top=0;left=0;bottom=0;right=0;collapsible=0;dropTarget=0;fillColor=none;points=[[0,0.5],[1,0.5]];portConstraint=eastwest;" parent="qiMS5X3NjVRDsY-8KbQ8-77" vertex="1">
          <mxGeometry y="92" width="140" height="18" as="geometry" />
        </mxCell>
        <mxCell id="qiMS5X3NjVRDsY-8KbQ8-134" value="" style="shape=partialRectangle;html=1;whiteSpace=wrap;connectable=0;overflow=hidden;top=0;left=0;bottom=0;right=0;pointerEvents=1;" parent="qiMS5X3NjVRDsY-8KbQ8-133" vertex="1">
          <mxGeometry width="14" height="18" as="geometry">
            <mxRectangle width="14" height="18" as="alternateBounds" />
          </mxGeometry>
        </mxCell>
        <mxCell id="qiMS5X3NjVRDsY-8KbQ8-135" value="" style="shape=partialRectangle;html=1;whiteSpace=wrap;connectable=0;overflow=hidden;top=0;left=0;bottom=0;right=0;pointerEvents=1;" parent="qiMS5X3NjVRDsY-8KbQ8-133" vertex="1">
          <mxGeometry x="14" width="14" height="18" as="geometry">
            <mxRectangle width="14" height="18" as="alternateBounds" />
          </mxGeometry>
        </mxCell>
        <mxCell id="qiMS5X3NjVRDsY-8KbQ8-136" value="" style="shape=partialRectangle;html=1;whiteSpace=wrap;connectable=0;overflow=hidden;top=0;left=0;bottom=0;right=0;pointerEvents=1;" parent="qiMS5X3NjVRDsY-8KbQ8-133" vertex="1">
          <mxGeometry x="28" width="14" height="18" as="geometry">
            <mxRectangle width="14" height="18" as="alternateBounds" />
          </mxGeometry>
        </mxCell>
        <mxCell id="qiMS5X3NjVRDsY-8KbQ8-137" value="" style="shape=partialRectangle;html=1;whiteSpace=wrap;connectable=0;overflow=hidden;top=0;left=0;bottom=0;right=0;pointerEvents=1;" parent="qiMS5X3NjVRDsY-8KbQ8-133" vertex="1">
          <mxGeometry x="42" width="14" height="18" as="geometry">
            <mxRectangle width="14" height="18" as="alternateBounds" />
          </mxGeometry>
        </mxCell>
        <mxCell id="qiMS5X3NjVRDsY-8KbQ8-138" value="" style="shape=partialRectangle;html=1;whiteSpace=wrap;connectable=0;overflow=hidden;top=0;left=0;bottom=0;right=0;pointerEvents=1;" parent="qiMS5X3NjVRDsY-8KbQ8-133" vertex="1">
          <mxGeometry x="56" width="14" height="18" as="geometry">
            <mxRectangle width="14" height="18" as="alternateBounds" />
          </mxGeometry>
        </mxCell>
        <mxCell id="qiMS5X3NjVRDsY-8KbQ8-139" value="" style="shape=partialRectangle;html=1;whiteSpace=wrap;connectable=0;overflow=hidden;top=0;left=0;bottom=0;right=0;pointerEvents=1;fillColor=#fff2cc;strokeColor=#d6b656;" parent="qiMS5X3NjVRDsY-8KbQ8-133" vertex="1">
          <mxGeometry x="70" width="14" height="18" as="geometry">
            <mxRectangle width="14" height="18" as="alternateBounds" />
          </mxGeometry>
        </mxCell>
        <mxCell id="qiMS5X3NjVRDsY-8KbQ8-140" value="" style="shape=partialRectangle;html=1;whiteSpace=wrap;connectable=0;overflow=hidden;top=0;left=0;bottom=0;right=0;pointerEvents=1;" parent="qiMS5X3NjVRDsY-8KbQ8-133" vertex="1">
          <mxGeometry x="84" width="14" height="18" as="geometry">
            <mxRectangle width="14" height="18" as="alternateBounds" />
          </mxGeometry>
        </mxCell>
        <mxCell id="qiMS5X3NjVRDsY-8KbQ8-141" value="" style="shape=partialRectangle;html=1;whiteSpace=wrap;connectable=0;overflow=hidden;top=0;left=0;bottom=0;right=0;pointerEvents=1;" parent="qiMS5X3NjVRDsY-8KbQ8-133" vertex="1">
          <mxGeometry x="98" width="14" height="18" as="geometry">
            <mxRectangle width="14" height="18" as="alternateBounds" />
          </mxGeometry>
        </mxCell>
        <mxCell id="qiMS5X3NjVRDsY-8KbQ8-142" value="" style="shape=partialRectangle;html=1;whiteSpace=wrap;connectable=0;overflow=hidden;top=0;left=0;bottom=0;right=0;pointerEvents=1;" parent="qiMS5X3NjVRDsY-8KbQ8-133" vertex="1">
          <mxGeometry x="112" width="14" height="18" as="geometry">
            <mxRectangle width="14" height="18" as="alternateBounds" />
          </mxGeometry>
        </mxCell>
        <mxCell id="qiMS5X3NjVRDsY-8KbQ8-143" value="" style="shape=partialRectangle;html=1;whiteSpace=wrap;connectable=0;overflow=hidden;top=0;left=0;bottom=0;right=0;pointerEvents=1;" parent="qiMS5X3NjVRDsY-8KbQ8-133" vertex="1">
          <mxGeometry x="126" width="14" height="18" as="geometry">
            <mxRectangle width="14" height="18" as="alternateBounds" />
          </mxGeometry>
        </mxCell>
        <mxCell id="qiMS5X3NjVRDsY-8KbQ8-155" value="" style="shape=table;startSize=0;container=1;collapsible=0;childLayout=tableLayout;" parent="1" vertex="1">
          <mxGeometry x="550" y="212" width="84" height="78" as="geometry" />
        </mxCell>
        <mxCell id="qiMS5X3NjVRDsY-8KbQ8-156" style="shape=tableRow;horizontal=0;startSize=0;swimlaneHead=0;swimlaneBody=0;strokeColor=inherit;top=0;left=0;bottom=0;right=0;collapsible=0;dropTarget=0;fillColor=none;points=[[0,0.5],[1,0.5]];portConstraint=eastwest;" parent="qiMS5X3NjVRDsY-8KbQ8-155" vertex="1">
          <mxGeometry width="84" height="16" as="geometry" />
        </mxCell>
        <mxCell id="qiMS5X3NjVRDsY-8KbQ8-157" style="shape=partialRectangle;html=1;whiteSpace=wrap;connectable=0;strokeColor=#6c8ebf;overflow=hidden;fillColor=#a0b8d9;top=0;left=0;bottom=0;right=0;pointerEvents=1;" parent="qiMS5X3NjVRDsY-8KbQ8-156" vertex="1">
          <mxGeometry width="14" height="16" as="geometry">
            <mxRectangle width="14" height="16" as="alternateBounds" />
          </mxGeometry>
        </mxCell>
        <mxCell id="qiMS5X3NjVRDsY-8KbQ8-158" style="shape=partialRectangle;html=1;whiteSpace=wrap;connectable=0;strokeColor=#6c8ebf;overflow=hidden;fillColor=#a0b8d9;top=0;left=0;bottom=0;right=0;pointerEvents=1;" parent="qiMS5X3NjVRDsY-8KbQ8-156" vertex="1">
          <mxGeometry x="14" width="14" height="16" as="geometry">
            <mxRectangle width="14" height="16" as="alternateBounds" />
          </mxGeometry>
        </mxCell>
        <mxCell id="qiMS5X3NjVRDsY-8KbQ8-159" style="shape=partialRectangle;html=1;whiteSpace=wrap;connectable=0;strokeColor=#6c8ebf;overflow=hidden;fillColor=#a0b8d9;top=0;left=0;bottom=0;right=0;pointerEvents=1;" parent="qiMS5X3NjVRDsY-8KbQ8-156" vertex="1">
          <mxGeometry x="28" width="14" height="16" as="geometry">
            <mxRectangle width="14" height="16" as="alternateBounds" />
          </mxGeometry>
        </mxCell>
        <mxCell id="qiMS5X3NjVRDsY-8KbQ8-160" style="shape=partialRectangle;html=1;whiteSpace=wrap;connectable=0;strokeColor=#6c8ebf;overflow=hidden;fillColor=#a0b8d9;top=0;left=0;bottom=0;right=0;pointerEvents=1;" parent="qiMS5X3NjVRDsY-8KbQ8-156" vertex="1">
          <mxGeometry x="42" width="14" height="16" as="geometry">
            <mxRectangle width="14" height="16" as="alternateBounds" />
          </mxGeometry>
        </mxCell>
        <mxCell id="qiMS5X3NjVRDsY-8KbQ8-161" style="shape=partialRectangle;html=1;whiteSpace=wrap;connectable=0;strokeColor=#6c8ebf;overflow=hidden;fillColor=#a0b8d9;top=0;left=0;bottom=0;right=0;pointerEvents=1;" parent="qiMS5X3NjVRDsY-8KbQ8-156" vertex="1">
          <mxGeometry x="56" width="14" height="16" as="geometry">
            <mxRectangle width="14" height="16" as="alternateBounds" />
          </mxGeometry>
        </mxCell>
        <mxCell id="qiMS5X3NjVRDsY-8KbQ8-162" style="shape=partialRectangle;html=1;whiteSpace=wrap;connectable=0;overflow=hidden;top=0;left=0;bottom=0;right=0;pointerEvents=1;fillColor=#dae8fc;strokeColor=#6c8ebf;" parent="qiMS5X3NjVRDsY-8KbQ8-156" vertex="1">
          <mxGeometry x="70" width="14" height="16" as="geometry">
            <mxRectangle width="14" height="16" as="alternateBounds" />
          </mxGeometry>
        </mxCell>
        <mxCell id="qiMS5X3NjVRDsY-8KbQ8-167" value="" style="shape=tableRow;horizontal=0;startSize=0;swimlaneHead=0;swimlaneBody=0;strokeColor=inherit;top=0;left=0;bottom=0;right=0;collapsible=0;dropTarget=0;fillColor=none;points=[[0,0.5],[1,0.5]];portConstraint=eastwest;" parent="qiMS5X3NjVRDsY-8KbQ8-155" vertex="1">
          <mxGeometry y="16" width="84" height="14" as="geometry" />
        </mxCell>
        <mxCell id="qiMS5X3NjVRDsY-8KbQ8-168" value="" style="shape=partialRectangle;html=1;whiteSpace=wrap;connectable=0;strokeColor=#6c8ebf;overflow=hidden;fillColor=#a0b8d9;top=0;left=0;bottom=0;right=0;pointerEvents=1;" parent="qiMS5X3NjVRDsY-8KbQ8-167" vertex="1">
          <mxGeometry width="14" height="14" as="geometry">
            <mxRectangle width="14" height="14" as="alternateBounds" />
          </mxGeometry>
        </mxCell>
        <mxCell id="qiMS5X3NjVRDsY-8KbQ8-169" value="" style="shape=partialRectangle;html=1;whiteSpace=wrap;connectable=0;strokeColor=#6c8ebf;overflow=hidden;fillColor=#a0b8d9;top=0;left=0;bottom=0;right=0;pointerEvents=1;" parent="qiMS5X3NjVRDsY-8KbQ8-167" vertex="1">
          <mxGeometry x="14" width="14" height="14" as="geometry">
            <mxRectangle width="14" height="14" as="alternateBounds" />
          </mxGeometry>
        </mxCell>
        <mxCell id="qiMS5X3NjVRDsY-8KbQ8-170" value="" style="shape=partialRectangle;html=1;whiteSpace=wrap;connectable=0;strokeColor=#6c8ebf;overflow=hidden;fillColor=#a0b8d9;top=0;left=0;bottom=0;right=0;pointerEvents=1;" parent="qiMS5X3NjVRDsY-8KbQ8-167" vertex="1">
          <mxGeometry x="28" width="14" height="14" as="geometry">
            <mxRectangle width="14" height="14" as="alternateBounds" />
          </mxGeometry>
        </mxCell>
        <mxCell id="qiMS5X3NjVRDsY-8KbQ8-171" value="" style="shape=partialRectangle;html=1;whiteSpace=wrap;connectable=0;strokeColor=#6c8ebf;overflow=hidden;fillColor=#a0b8d9;top=0;left=0;bottom=0;right=0;pointerEvents=1;" parent="qiMS5X3NjVRDsY-8KbQ8-167" vertex="1">
          <mxGeometry x="42" width="14" height="14" as="geometry">
            <mxRectangle width="14" height="14" as="alternateBounds" />
          </mxGeometry>
        </mxCell>
        <mxCell id="qiMS5X3NjVRDsY-8KbQ8-172" value="" style="shape=partialRectangle;html=1;whiteSpace=wrap;connectable=0;strokeColor=#6c8ebf;overflow=hidden;fillColor=#a0b8d9;top=0;left=0;bottom=0;right=0;pointerEvents=1;" parent="qiMS5X3NjVRDsY-8KbQ8-167" vertex="1">
          <mxGeometry x="56" width="14" height="14" as="geometry">
            <mxRectangle width="14" height="14" as="alternateBounds" />
          </mxGeometry>
        </mxCell>
        <mxCell id="qiMS5X3NjVRDsY-8KbQ8-173" value="" style="shape=partialRectangle;html=1;whiteSpace=wrap;connectable=0;overflow=hidden;top=0;left=0;bottom=0;right=0;pointerEvents=1;fillColor=#dae8fc;strokeColor=#6c8ebf;" parent="qiMS5X3NjVRDsY-8KbQ8-167" vertex="1">
          <mxGeometry x="70" width="14" height="14" as="geometry">
            <mxRectangle width="14" height="14" as="alternateBounds" />
          </mxGeometry>
        </mxCell>
        <mxCell id="qiMS5X3NjVRDsY-8KbQ8-178" value="" style="shape=tableRow;horizontal=0;startSize=0;swimlaneHead=0;swimlaneBody=0;strokeColor=inherit;top=0;left=0;bottom=0;right=0;collapsible=0;dropTarget=0;fillColor=none;points=[[0,0.5],[1,0.5]];portConstraint=eastwest;" parent="qiMS5X3NjVRDsY-8KbQ8-155" vertex="1">
          <mxGeometry y="30" width="84" height="16" as="geometry" />
        </mxCell>
        <mxCell id="qiMS5X3NjVRDsY-8KbQ8-179" value="" style="shape=partialRectangle;html=1;whiteSpace=wrap;connectable=0;strokeColor=#6c8ebf;overflow=hidden;fillColor=#a0b8d9;top=0;left=0;bottom=0;right=0;pointerEvents=1;" parent="qiMS5X3NjVRDsY-8KbQ8-178" vertex="1">
          <mxGeometry width="14" height="16" as="geometry">
            <mxRectangle width="14" height="16" as="alternateBounds" />
          </mxGeometry>
        </mxCell>
        <mxCell id="qiMS5X3NjVRDsY-8KbQ8-180" value="" style="shape=partialRectangle;html=1;whiteSpace=wrap;connectable=0;strokeColor=#6c8ebf;overflow=hidden;fillColor=#a0b8d9;top=0;left=0;bottom=0;right=0;pointerEvents=1;" parent="qiMS5X3NjVRDsY-8KbQ8-178" vertex="1">
          <mxGeometry x="14" width="14" height="16" as="geometry">
            <mxRectangle width="14" height="16" as="alternateBounds" />
          </mxGeometry>
        </mxCell>
        <mxCell id="qiMS5X3NjVRDsY-8KbQ8-181" value="" style="shape=partialRectangle;html=1;whiteSpace=wrap;connectable=0;strokeColor=#6c8ebf;overflow=hidden;fillColor=#a0b8d9;top=0;left=0;bottom=0;right=0;pointerEvents=1;" parent="qiMS5X3NjVRDsY-8KbQ8-178" vertex="1">
          <mxGeometry x="28" width="14" height="16" as="geometry">
            <mxRectangle width="14" height="16" as="alternateBounds" />
          </mxGeometry>
        </mxCell>
        <mxCell id="qiMS5X3NjVRDsY-8KbQ8-182" value="" style="shape=partialRectangle;html=1;whiteSpace=wrap;connectable=0;strokeColor=#6c8ebf;overflow=hidden;fillColor=#a0b8d9;top=0;left=0;bottom=0;right=0;pointerEvents=1;" parent="qiMS5X3NjVRDsY-8KbQ8-178" vertex="1">
          <mxGeometry x="42" width="14" height="16" as="geometry">
            <mxRectangle width="14" height="16" as="alternateBounds" />
          </mxGeometry>
        </mxCell>
        <mxCell id="qiMS5X3NjVRDsY-8KbQ8-183" value="" style="shape=partialRectangle;html=1;whiteSpace=wrap;connectable=0;strokeColor=#6c8ebf;overflow=hidden;fillColor=#a0b8d9;top=0;left=0;bottom=0;right=0;pointerEvents=1;" parent="qiMS5X3NjVRDsY-8KbQ8-178" vertex="1">
          <mxGeometry x="56" width="14" height="16" as="geometry">
            <mxRectangle width="14" height="16" as="alternateBounds" />
          </mxGeometry>
        </mxCell>
        <mxCell id="qiMS5X3NjVRDsY-8KbQ8-184" value="" style="shape=partialRectangle;html=1;whiteSpace=wrap;connectable=0;overflow=hidden;top=0;left=0;bottom=0;right=0;pointerEvents=1;fillColor=#dae8fc;strokeColor=#6c8ebf;" parent="qiMS5X3NjVRDsY-8KbQ8-178" vertex="1">
          <mxGeometry x="70" width="14" height="16" as="geometry">
            <mxRectangle width="14" height="16" as="alternateBounds" />
          </mxGeometry>
        </mxCell>
        <mxCell id="qiMS5X3NjVRDsY-8KbQ8-189" value="" style="shape=tableRow;horizontal=0;startSize=0;swimlaneHead=0;swimlaneBody=0;strokeColor=inherit;top=0;left=0;bottom=0;right=0;collapsible=0;dropTarget=0;fillColor=none;points=[[0,0.5],[1,0.5]];portConstraint=eastwest;" parent="qiMS5X3NjVRDsY-8KbQ8-155" vertex="1">
          <mxGeometry y="46" width="84" height="16" as="geometry" />
        </mxCell>
        <mxCell id="qiMS5X3NjVRDsY-8KbQ8-190" value="" style="shape=partialRectangle;html=1;whiteSpace=wrap;connectable=0;strokeColor=#6c8ebf;overflow=hidden;fillColor=#a0b8d9;top=0;left=0;bottom=0;right=0;pointerEvents=1;" parent="qiMS5X3NjVRDsY-8KbQ8-189" vertex="1">
          <mxGeometry width="14" height="16" as="geometry">
            <mxRectangle width="14" height="16" as="alternateBounds" />
          </mxGeometry>
        </mxCell>
        <mxCell id="qiMS5X3NjVRDsY-8KbQ8-191" value="" style="shape=partialRectangle;html=1;whiteSpace=wrap;connectable=0;strokeColor=#6c8ebf;overflow=hidden;fillColor=#a0b8d9;top=0;left=0;bottom=0;right=0;pointerEvents=1;" parent="qiMS5X3NjVRDsY-8KbQ8-189" vertex="1">
          <mxGeometry x="14" width="14" height="16" as="geometry">
            <mxRectangle width="14" height="16" as="alternateBounds" />
          </mxGeometry>
        </mxCell>
        <mxCell id="qiMS5X3NjVRDsY-8KbQ8-192" value="" style="shape=partialRectangle;html=1;whiteSpace=wrap;connectable=0;overflow=hidden;top=0;left=0;bottom=0;right=0;pointerEvents=1;fillColor=#a0b8d9;strokeColor=#6c8ebf;" parent="qiMS5X3NjVRDsY-8KbQ8-189" vertex="1">
          <mxGeometry x="28" width="14" height="16" as="geometry">
            <mxRectangle width="14" height="16" as="alternateBounds" />
          </mxGeometry>
        </mxCell>
        <mxCell id="qiMS5X3NjVRDsY-8KbQ8-193" value="" style="shape=partialRectangle;html=1;whiteSpace=wrap;connectable=0;strokeColor=#6c8ebf;overflow=hidden;fillColor=#a0b8d9;top=0;left=0;bottom=0;right=0;pointerEvents=1;" parent="qiMS5X3NjVRDsY-8KbQ8-189" vertex="1">
          <mxGeometry x="42" width="14" height="16" as="geometry">
            <mxRectangle width="14" height="16" as="alternateBounds" />
          </mxGeometry>
        </mxCell>
        <mxCell id="qiMS5X3NjVRDsY-8KbQ8-194" value="" style="shape=partialRectangle;html=1;whiteSpace=wrap;connectable=0;strokeColor=#6c8ebf;overflow=hidden;fillColor=#a0b8d9;top=0;left=0;bottom=0;right=0;pointerEvents=1;" parent="qiMS5X3NjVRDsY-8KbQ8-189" vertex="1">
          <mxGeometry x="56" width="14" height="16" as="geometry">
            <mxRectangle width="14" height="16" as="alternateBounds" />
          </mxGeometry>
        </mxCell>
        <mxCell id="qiMS5X3NjVRDsY-8KbQ8-195" value="" style="shape=partialRectangle;html=1;whiteSpace=wrap;connectable=0;overflow=hidden;top=0;left=0;bottom=0;right=0;pointerEvents=1;fillColor=#dae8fc;strokeColor=#6c8ebf;" parent="qiMS5X3NjVRDsY-8KbQ8-189" vertex="1">
          <mxGeometry x="70" width="14" height="16" as="geometry">
            <mxRectangle width="14" height="16" as="alternateBounds" />
          </mxGeometry>
        </mxCell>
        <mxCell id="qiMS5X3NjVRDsY-8KbQ8-200" value="" style="shape=tableRow;horizontal=0;startSize=0;swimlaneHead=0;swimlaneBody=0;strokeColor=inherit;top=0;left=0;bottom=0;right=0;collapsible=0;dropTarget=0;fillColor=none;points=[[0,0.5],[1,0.5]];portConstraint=eastwest;" parent="qiMS5X3NjVRDsY-8KbQ8-155" vertex="1">
          <mxGeometry y="62" width="84" height="16" as="geometry" />
        </mxCell>
        <mxCell id="qiMS5X3NjVRDsY-8KbQ8-201" value="" style="shape=partialRectangle;html=1;whiteSpace=wrap;connectable=0;overflow=hidden;top=0;left=0;bottom=0;right=0;pointerEvents=1;fillColor=#dae8fc;strokeColor=#6c8ebf;" parent="qiMS5X3NjVRDsY-8KbQ8-200" vertex="1">
          <mxGeometry width="14" height="16" as="geometry">
            <mxRectangle width="14" height="16" as="alternateBounds" />
          </mxGeometry>
        </mxCell>
        <mxCell id="qiMS5X3NjVRDsY-8KbQ8-202" value="" style="shape=partialRectangle;html=1;whiteSpace=wrap;connectable=0;overflow=hidden;top=0;left=0;bottom=0;right=0;pointerEvents=1;fillColor=#dae8fc;strokeColor=#6c8ebf;" parent="qiMS5X3NjVRDsY-8KbQ8-200" vertex="1">
          <mxGeometry x="14" width="14" height="16" as="geometry">
            <mxRectangle width="14" height="16" as="alternateBounds" />
          </mxGeometry>
        </mxCell>
        <mxCell id="qiMS5X3NjVRDsY-8KbQ8-203" value="" style="shape=partialRectangle;html=1;whiteSpace=wrap;connectable=0;overflow=hidden;top=0;left=0;bottom=0;right=0;pointerEvents=1;fillColor=#dae8fc;strokeColor=#6c8ebf;" parent="qiMS5X3NjVRDsY-8KbQ8-200" vertex="1">
          <mxGeometry x="28" width="14" height="16" as="geometry">
            <mxRectangle width="14" height="16" as="alternateBounds" />
          </mxGeometry>
        </mxCell>
        <mxCell id="qiMS5X3NjVRDsY-8KbQ8-204" value="" style="shape=partialRectangle;html=1;whiteSpace=wrap;connectable=0;overflow=hidden;top=0;left=0;bottom=0;right=0;pointerEvents=1;fillColor=#dae8fc;strokeColor=#6c8ebf;" parent="qiMS5X3NjVRDsY-8KbQ8-200" vertex="1">
          <mxGeometry x="42" width="14" height="16" as="geometry">
            <mxRectangle width="14" height="16" as="alternateBounds" />
          </mxGeometry>
        </mxCell>
        <mxCell id="qiMS5X3NjVRDsY-8KbQ8-205" value="" style="shape=partialRectangle;html=1;whiteSpace=wrap;connectable=0;overflow=hidden;top=0;left=0;bottom=0;right=0;pointerEvents=1;fillColor=#dae8fc;strokeColor=#6c8ebf;" parent="qiMS5X3NjVRDsY-8KbQ8-200" vertex="1">
          <mxGeometry x="56" width="14" height="16" as="geometry">
            <mxRectangle width="14" height="16" as="alternateBounds" />
          </mxGeometry>
        </mxCell>
        <mxCell id="qiMS5X3NjVRDsY-8KbQ8-206" value="" style="shape=partialRectangle;html=1;whiteSpace=wrap;connectable=0;overflow=hidden;top=0;left=0;bottom=0;right=0;pointerEvents=1;fillColor=#dae8fc;strokeColor=#6c8ebf;" parent="qiMS5X3NjVRDsY-8KbQ8-200" vertex="1">
          <mxGeometry x="70" width="14" height="16" as="geometry">
            <mxRectangle width="14" height="16" as="alternateBounds" />
          </mxGeometry>
        </mxCell>
        <mxCell id="qiMS5X3NjVRDsY-8KbQ8-247" value="" style="shape=table;startSize=0;container=1;collapsible=0;childLayout=tableLayout;" parent="1" vertex="1">
          <mxGeometry x="660" y="212" width="70" height="78" as="geometry" />
        </mxCell>
        <mxCell id="qiMS5X3NjVRDsY-8KbQ8-248" style="shape=tableRow;horizontal=0;startSize=0;swimlaneHead=0;swimlaneBody=0;strokeColor=inherit;top=0;left=0;bottom=0;right=0;collapsible=0;dropTarget=0;fillColor=none;points=[[0,0.5],[1,0.5]];portConstraint=eastwest;" parent="qiMS5X3NjVRDsY-8KbQ8-247" vertex="1">
          <mxGeometry width="70" height="16" as="geometry" />
        </mxCell>
        <mxCell id="qiMS5X3NjVRDsY-8KbQ8-250" style="shape=partialRectangle;html=1;whiteSpace=wrap;connectable=0;strokeColor=#6c8ebf;overflow=hidden;fillColor=#dae8fc;top=0;left=0;bottom=0;right=0;pointerEvents=1;" parent="qiMS5X3NjVRDsY-8KbQ8-248" vertex="1">
          <mxGeometry width="14" height="16" as="geometry">
            <mxRectangle width="14" height="16" as="alternateBounds" />
          </mxGeometry>
        </mxCell>
        <mxCell id="qiMS5X3NjVRDsY-8KbQ8-251" style="shape=partialRectangle;html=1;whiteSpace=wrap;connectable=0;overflow=hidden;top=0;left=0;bottom=0;right=0;pointerEvents=1;" parent="qiMS5X3NjVRDsY-8KbQ8-248" vertex="1">
          <mxGeometry x="14" width="14" height="16" as="geometry">
            <mxRectangle width="14" height="16" as="alternateBounds" />
          </mxGeometry>
        </mxCell>
        <mxCell id="qiMS5X3NjVRDsY-8KbQ8-252" style="shape=partialRectangle;html=1;whiteSpace=wrap;connectable=0;overflow=hidden;top=0;left=0;bottom=0;right=0;pointerEvents=1;" parent="qiMS5X3NjVRDsY-8KbQ8-248" vertex="1">
          <mxGeometry x="28" width="14" height="16" as="geometry">
            <mxRectangle width="14" height="16" as="alternateBounds" />
          </mxGeometry>
        </mxCell>
        <mxCell id="qiMS5X3NjVRDsY-8KbQ8-253" style="shape=partialRectangle;html=1;whiteSpace=wrap;connectable=0;overflow=hidden;top=0;left=0;bottom=0;right=0;pointerEvents=1;" parent="qiMS5X3NjVRDsY-8KbQ8-248" vertex="1">
          <mxGeometry x="42" width="14" height="16" as="geometry">
            <mxRectangle width="14" height="16" as="alternateBounds" />
          </mxGeometry>
        </mxCell>
        <mxCell id="qiMS5X3NjVRDsY-8KbQ8-254" style="shape=partialRectangle;html=1;whiteSpace=wrap;connectable=0;overflow=hidden;top=0;left=0;bottom=0;right=0;pointerEvents=1;" parent="qiMS5X3NjVRDsY-8KbQ8-248" vertex="1">
          <mxGeometry x="56" width="14" height="16" as="geometry">
            <mxRectangle width="14" height="16" as="alternateBounds" />
          </mxGeometry>
        </mxCell>
        <mxCell id="qiMS5X3NjVRDsY-8KbQ8-259" value="" style="shape=tableRow;horizontal=0;startSize=0;swimlaneHead=0;swimlaneBody=0;strokeColor=inherit;top=0;left=0;bottom=0;right=0;collapsible=0;dropTarget=0;fillColor=none;points=[[0,0.5],[1,0.5]];portConstraint=eastwest;" parent="qiMS5X3NjVRDsY-8KbQ8-247" vertex="1">
          <mxGeometry y="16" width="70" height="14" as="geometry" />
        </mxCell>
        <mxCell id="qiMS5X3NjVRDsY-8KbQ8-261" value="" style="shape=partialRectangle;html=1;whiteSpace=wrap;connectable=0;strokeColor=#6c8ebf;overflow=hidden;fillColor=#dae8fc;top=0;left=0;bottom=0;right=0;pointerEvents=1;" parent="qiMS5X3NjVRDsY-8KbQ8-259" vertex="1">
          <mxGeometry width="14" height="14" as="geometry">
            <mxRectangle width="14" height="14" as="alternateBounds" />
          </mxGeometry>
        </mxCell>
        <mxCell id="qiMS5X3NjVRDsY-8KbQ8-262" value="" style="shape=partialRectangle;html=1;whiteSpace=wrap;connectable=0;overflow=hidden;top=0;left=0;bottom=0;right=0;pointerEvents=1;" parent="qiMS5X3NjVRDsY-8KbQ8-259" vertex="1">
          <mxGeometry x="14" width="14" height="14" as="geometry">
            <mxRectangle width="14" height="14" as="alternateBounds" />
          </mxGeometry>
        </mxCell>
        <mxCell id="qiMS5X3NjVRDsY-8KbQ8-263" value="" style="shape=partialRectangle;html=1;whiteSpace=wrap;connectable=0;overflow=hidden;top=0;left=0;bottom=0;right=0;pointerEvents=1;" parent="qiMS5X3NjVRDsY-8KbQ8-259" vertex="1">
          <mxGeometry x="28" width="14" height="14" as="geometry">
            <mxRectangle width="14" height="14" as="alternateBounds" />
          </mxGeometry>
        </mxCell>
        <mxCell id="qiMS5X3NjVRDsY-8KbQ8-264" value="" style="shape=partialRectangle;html=1;whiteSpace=wrap;connectable=0;overflow=hidden;top=0;left=0;bottom=0;right=0;pointerEvents=1;" parent="qiMS5X3NjVRDsY-8KbQ8-259" vertex="1">
          <mxGeometry x="42" width="14" height="14" as="geometry">
            <mxRectangle width="14" height="14" as="alternateBounds" />
          </mxGeometry>
        </mxCell>
        <mxCell id="qiMS5X3NjVRDsY-8KbQ8-265" value="" style="shape=partialRectangle;html=1;whiteSpace=wrap;connectable=0;overflow=hidden;top=0;left=0;bottom=0;right=0;pointerEvents=1;" parent="qiMS5X3NjVRDsY-8KbQ8-259" vertex="1">
          <mxGeometry x="56" width="14" height="14" as="geometry">
            <mxRectangle width="14" height="14" as="alternateBounds" />
          </mxGeometry>
        </mxCell>
        <mxCell id="qiMS5X3NjVRDsY-8KbQ8-270" value="" style="shape=tableRow;horizontal=0;startSize=0;swimlaneHead=0;swimlaneBody=0;strokeColor=inherit;top=0;left=0;bottom=0;right=0;collapsible=0;dropTarget=0;fillColor=none;points=[[0,0.5],[1,0.5]];portConstraint=eastwest;" parent="qiMS5X3NjVRDsY-8KbQ8-247" vertex="1">
          <mxGeometry y="30" width="70" height="16" as="geometry" />
        </mxCell>
        <mxCell id="qiMS5X3NjVRDsY-8KbQ8-272" value="" style="shape=partialRectangle;html=1;whiteSpace=wrap;connectable=0;strokeColor=#6c8ebf;overflow=hidden;fillColor=#dae8fc;top=0;left=0;bottom=0;right=0;pointerEvents=1;" parent="qiMS5X3NjVRDsY-8KbQ8-270" vertex="1">
          <mxGeometry width="14" height="16" as="geometry">
            <mxRectangle width="14" height="16" as="alternateBounds" />
          </mxGeometry>
        </mxCell>
        <mxCell id="qiMS5X3NjVRDsY-8KbQ8-273" value="" style="shape=partialRectangle;html=1;whiteSpace=wrap;connectable=0;overflow=hidden;top=0;left=0;bottom=0;right=0;pointerEvents=1;" parent="qiMS5X3NjVRDsY-8KbQ8-270" vertex="1">
          <mxGeometry x="14" width="14" height="16" as="geometry">
            <mxRectangle width="14" height="16" as="alternateBounds" />
          </mxGeometry>
        </mxCell>
        <mxCell id="qiMS5X3NjVRDsY-8KbQ8-274" value="" style="shape=partialRectangle;html=1;whiteSpace=wrap;connectable=0;overflow=hidden;top=0;left=0;bottom=0;right=0;pointerEvents=1;" parent="qiMS5X3NjVRDsY-8KbQ8-270" vertex="1">
          <mxGeometry x="28" width="14" height="16" as="geometry">
            <mxRectangle width="14" height="16" as="alternateBounds" />
          </mxGeometry>
        </mxCell>
        <mxCell id="qiMS5X3NjVRDsY-8KbQ8-275" value="" style="shape=partialRectangle;html=1;whiteSpace=wrap;connectable=0;overflow=hidden;top=0;left=0;bottom=0;right=0;pointerEvents=1;" parent="qiMS5X3NjVRDsY-8KbQ8-270" vertex="1">
          <mxGeometry x="42" width="14" height="16" as="geometry">
            <mxRectangle width="14" height="16" as="alternateBounds" />
          </mxGeometry>
        </mxCell>
        <mxCell id="qiMS5X3NjVRDsY-8KbQ8-276" value="" style="shape=partialRectangle;html=1;whiteSpace=wrap;connectable=0;overflow=hidden;top=0;left=0;bottom=0;right=0;pointerEvents=1;" parent="qiMS5X3NjVRDsY-8KbQ8-270" vertex="1">
          <mxGeometry x="56" width="14" height="16" as="geometry">
            <mxRectangle width="14" height="16" as="alternateBounds" />
          </mxGeometry>
        </mxCell>
        <mxCell id="qiMS5X3NjVRDsY-8KbQ8-281" value="" style="shape=tableRow;horizontal=0;startSize=0;swimlaneHead=0;swimlaneBody=0;strokeColor=inherit;top=0;left=0;bottom=0;right=0;collapsible=0;dropTarget=0;fillColor=none;points=[[0,0.5],[1,0.5]];portConstraint=eastwest;" parent="qiMS5X3NjVRDsY-8KbQ8-247" vertex="1">
          <mxGeometry y="46" width="70" height="16" as="geometry" />
        </mxCell>
        <mxCell id="qiMS5X3NjVRDsY-8KbQ8-283" value="" style="shape=partialRectangle;html=1;whiteSpace=wrap;connectable=0;strokeColor=#6c8ebf;overflow=hidden;fillColor=#dae8fc;top=0;left=0;bottom=0;right=0;pointerEvents=1;" parent="qiMS5X3NjVRDsY-8KbQ8-281" vertex="1">
          <mxGeometry width="14" height="16" as="geometry">
            <mxRectangle width="14" height="16" as="alternateBounds" />
          </mxGeometry>
        </mxCell>
        <mxCell id="qiMS5X3NjVRDsY-8KbQ8-284" value="" style="shape=partialRectangle;html=1;whiteSpace=wrap;connectable=0;overflow=hidden;top=0;left=0;bottom=0;right=0;pointerEvents=1;" parent="qiMS5X3NjVRDsY-8KbQ8-281" vertex="1">
          <mxGeometry x="14" width="14" height="16" as="geometry">
            <mxRectangle width="14" height="16" as="alternateBounds" />
          </mxGeometry>
        </mxCell>
        <mxCell id="qiMS5X3NjVRDsY-8KbQ8-285" value="" style="shape=partialRectangle;html=1;whiteSpace=wrap;connectable=0;overflow=hidden;top=0;left=0;bottom=0;right=0;pointerEvents=1;" parent="qiMS5X3NjVRDsY-8KbQ8-281" vertex="1">
          <mxGeometry x="28" width="14" height="16" as="geometry">
            <mxRectangle width="14" height="16" as="alternateBounds" />
          </mxGeometry>
        </mxCell>
        <mxCell id="qiMS5X3NjVRDsY-8KbQ8-286" value="" style="shape=partialRectangle;html=1;whiteSpace=wrap;connectable=0;overflow=hidden;top=0;left=0;bottom=0;right=0;pointerEvents=1;" parent="qiMS5X3NjVRDsY-8KbQ8-281" vertex="1">
          <mxGeometry x="42" width="14" height="16" as="geometry">
            <mxRectangle width="14" height="16" as="alternateBounds" />
          </mxGeometry>
        </mxCell>
        <mxCell id="qiMS5X3NjVRDsY-8KbQ8-287" value="" style="shape=partialRectangle;html=1;whiteSpace=wrap;connectable=0;overflow=hidden;top=0;left=0;bottom=0;right=0;pointerEvents=1;" parent="qiMS5X3NjVRDsY-8KbQ8-281" vertex="1">
          <mxGeometry x="56" width="14" height="16" as="geometry">
            <mxRectangle width="14" height="16" as="alternateBounds" />
          </mxGeometry>
        </mxCell>
        <mxCell id="qiMS5X3NjVRDsY-8KbQ8-292" value="" style="shape=tableRow;horizontal=0;startSize=0;swimlaneHead=0;swimlaneBody=0;strokeColor=inherit;top=0;left=0;bottom=0;right=0;collapsible=0;dropTarget=0;fillColor=none;points=[[0,0.5],[1,0.5]];portConstraint=eastwest;" parent="qiMS5X3NjVRDsY-8KbQ8-247" vertex="1">
          <mxGeometry y="62" width="70" height="16" as="geometry" />
        </mxCell>
        <mxCell id="qiMS5X3NjVRDsY-8KbQ8-294" value="" style="shape=partialRectangle;html=1;whiteSpace=wrap;connectable=0;overflow=hidden;top=0;left=0;bottom=0;right=0;pointerEvents=1;fillColor=#dae8fc;strokeColor=#6c8ebf;" parent="qiMS5X3NjVRDsY-8KbQ8-292" vertex="1">
          <mxGeometry width="14" height="16" as="geometry">
            <mxRectangle width="14" height="16" as="alternateBounds" />
          </mxGeometry>
        </mxCell>
        <mxCell id="qiMS5X3NjVRDsY-8KbQ8-295" value="" style="shape=partialRectangle;html=1;whiteSpace=wrap;connectable=0;overflow=hidden;top=0;left=0;bottom=0;right=0;pointerEvents=1;fillColor=#fff2cc;strokeColor=#d6b656;" parent="qiMS5X3NjVRDsY-8KbQ8-292" vertex="1">
          <mxGeometry x="14" width="14" height="16" as="geometry">
            <mxRectangle width="14" height="16" as="alternateBounds" />
          </mxGeometry>
        </mxCell>
        <mxCell id="qiMS5X3NjVRDsY-8KbQ8-296" value="" style="shape=partialRectangle;html=1;whiteSpace=wrap;connectable=0;overflow=hidden;top=0;left=0;bottom=0;right=0;pointerEvents=1;fillColor=#fff2cc;strokeColor=#d6b656;" parent="qiMS5X3NjVRDsY-8KbQ8-292" vertex="1">
          <mxGeometry x="28" width="14" height="16" as="geometry">
            <mxRectangle width="14" height="16" as="alternateBounds" />
          </mxGeometry>
        </mxCell>
        <mxCell id="qiMS5X3NjVRDsY-8KbQ8-297" value="" style="shape=partialRectangle;html=1;whiteSpace=wrap;connectable=0;overflow=hidden;top=0;left=0;bottom=0;right=0;pointerEvents=1;fillColor=#fff2cc;strokeColor=#d6b656;" parent="qiMS5X3NjVRDsY-8KbQ8-292" vertex="1">
          <mxGeometry x="42" width="14" height="16" as="geometry">
            <mxRectangle width="14" height="16" as="alternateBounds" />
          </mxGeometry>
        </mxCell>
        <mxCell id="qiMS5X3NjVRDsY-8KbQ8-298" value="" style="shape=partialRectangle;html=1;whiteSpace=wrap;connectable=0;overflow=hidden;top=0;left=0;bottom=0;right=0;pointerEvents=1;fillColor=#fff2cc;strokeColor=#d6b656;" parent="qiMS5X3NjVRDsY-8KbQ8-292" vertex="1">
          <mxGeometry x="56" width="14" height="16" as="geometry">
            <mxRectangle width="14" height="16" as="alternateBounds" />
          </mxGeometry>
        </mxCell>
        <mxCell id="qiMS5X3NjVRDsY-8KbQ8-325" value="" style="shape=table;startSize=0;container=1;collapsible=0;childLayout=tableLayout;" parent="1" vertex="1">
          <mxGeometry x="550" y="312" width="84" height="46" as="geometry" />
        </mxCell>
        <mxCell id="qiMS5X3NjVRDsY-8KbQ8-326" style="shape=tableRow;horizontal=0;startSize=0;swimlaneHead=0;swimlaneBody=0;strokeColor=inherit;top=0;left=0;bottom=0;right=0;collapsible=0;dropTarget=0;fillColor=none;points=[[0,0.5],[1,0.5]];portConstraint=eastwest;" parent="qiMS5X3NjVRDsY-8KbQ8-325" vertex="1">
          <mxGeometry width="84" height="16" as="geometry" />
        </mxCell>
        <mxCell id="qiMS5X3NjVRDsY-8KbQ8-327" style="shape=partialRectangle;html=1;whiteSpace=wrap;connectable=0;strokeColor=#6c8ebf;overflow=hidden;fillColor=#dae8fc;top=0;left=0;bottom=0;right=0;pointerEvents=1;" parent="qiMS5X3NjVRDsY-8KbQ8-326" vertex="1">
          <mxGeometry width="14" height="16" as="geometry">
            <mxRectangle width="14" height="16" as="alternateBounds" />
          </mxGeometry>
        </mxCell>
        <mxCell id="qiMS5X3NjVRDsY-8KbQ8-328" style="shape=partialRectangle;html=1;whiteSpace=wrap;connectable=0;strokeColor=#6c8ebf;overflow=hidden;fillColor=#dae8fc;top=0;left=0;bottom=0;right=0;pointerEvents=1;" parent="qiMS5X3NjVRDsY-8KbQ8-326" vertex="1">
          <mxGeometry x="14" width="14" height="16" as="geometry">
            <mxRectangle width="14" height="16" as="alternateBounds" />
          </mxGeometry>
        </mxCell>
        <mxCell id="qiMS5X3NjVRDsY-8KbQ8-329" style="shape=partialRectangle;html=1;whiteSpace=wrap;connectable=0;strokeColor=#6c8ebf;overflow=hidden;fillColor=#dae8fc;top=0;left=0;bottom=0;right=0;pointerEvents=1;" parent="qiMS5X3NjVRDsY-8KbQ8-326" vertex="1">
          <mxGeometry x="28" width="14" height="16" as="geometry">
            <mxRectangle width="14" height="16" as="alternateBounds" />
          </mxGeometry>
        </mxCell>
        <mxCell id="qiMS5X3NjVRDsY-8KbQ8-330" style="shape=partialRectangle;html=1;whiteSpace=wrap;connectable=0;strokeColor=#6c8ebf;overflow=hidden;fillColor=#dae8fc;top=0;left=0;bottom=0;right=0;pointerEvents=1;" parent="qiMS5X3NjVRDsY-8KbQ8-326" vertex="1">
          <mxGeometry x="42" width="14" height="16" as="geometry">
            <mxRectangle width="14" height="16" as="alternateBounds" />
          </mxGeometry>
        </mxCell>
        <mxCell id="qiMS5X3NjVRDsY-8KbQ8-331" style="shape=partialRectangle;html=1;whiteSpace=wrap;connectable=0;strokeColor=#6c8ebf;overflow=hidden;fillColor=#dae8fc;top=0;left=0;bottom=0;right=0;pointerEvents=1;" parent="qiMS5X3NjVRDsY-8KbQ8-326" vertex="1">
          <mxGeometry x="56" width="14" height="16" as="geometry">
            <mxRectangle width="14" height="16" as="alternateBounds" />
          </mxGeometry>
        </mxCell>
        <mxCell id="qiMS5X3NjVRDsY-8KbQ8-332" style="shape=partialRectangle;html=1;whiteSpace=wrap;connectable=0;overflow=hidden;top=0;left=0;bottom=0;right=0;pointerEvents=1;fillColor=#dae8fc;strokeColor=#6c8ebf;" parent="qiMS5X3NjVRDsY-8KbQ8-326" vertex="1">
          <mxGeometry x="70" width="14" height="16" as="geometry">
            <mxRectangle width="14" height="16" as="alternateBounds" />
          </mxGeometry>
        </mxCell>
        <mxCell id="qiMS5X3NjVRDsY-8KbQ8-337" value="" style="shape=tableRow;horizontal=0;startSize=0;swimlaneHead=0;swimlaneBody=0;strokeColor=inherit;top=0;left=0;bottom=0;right=0;collapsible=0;dropTarget=0;fillColor=none;points=[[0,0.5],[1,0.5]];portConstraint=eastwest;" parent="qiMS5X3NjVRDsY-8KbQ8-325" vertex="1">
          <mxGeometry y="16" width="84" height="14" as="geometry" />
        </mxCell>
        <mxCell id="qiMS5X3NjVRDsY-8KbQ8-338" value="" style="shape=partialRectangle;html=1;whiteSpace=wrap;connectable=0;overflow=hidden;top=0;left=0;bottom=0;right=0;pointerEvents=1;" parent="qiMS5X3NjVRDsY-8KbQ8-337" vertex="1">
          <mxGeometry width="14" height="14" as="geometry">
            <mxRectangle width="14" height="14" as="alternateBounds" />
          </mxGeometry>
        </mxCell>
        <mxCell id="qiMS5X3NjVRDsY-8KbQ8-339" value="" style="shape=partialRectangle;html=1;whiteSpace=wrap;connectable=0;overflow=hidden;top=0;left=0;bottom=0;right=0;pointerEvents=1;" parent="qiMS5X3NjVRDsY-8KbQ8-337" vertex="1">
          <mxGeometry x="14" width="14" height="14" as="geometry">
            <mxRectangle width="14" height="14" as="alternateBounds" />
          </mxGeometry>
        </mxCell>
        <mxCell id="qiMS5X3NjVRDsY-8KbQ8-340" value="" style="shape=partialRectangle;html=1;whiteSpace=wrap;connectable=0;overflow=hidden;top=0;left=0;bottom=0;right=0;pointerEvents=1;" parent="qiMS5X3NjVRDsY-8KbQ8-337" vertex="1">
          <mxGeometry x="28" width="14" height="14" as="geometry">
            <mxRectangle width="14" height="14" as="alternateBounds" />
          </mxGeometry>
        </mxCell>
        <mxCell id="qiMS5X3NjVRDsY-8KbQ8-341" value="" style="shape=partialRectangle;html=1;whiteSpace=wrap;connectable=0;overflow=hidden;top=0;left=0;bottom=0;right=0;pointerEvents=1;" parent="qiMS5X3NjVRDsY-8KbQ8-337" vertex="1">
          <mxGeometry x="42" width="14" height="14" as="geometry">
            <mxRectangle width="14" height="14" as="alternateBounds" />
          </mxGeometry>
        </mxCell>
        <mxCell id="qiMS5X3NjVRDsY-8KbQ8-342" value="" style="shape=partialRectangle;html=1;whiteSpace=wrap;connectable=0;overflow=hidden;top=0;left=0;bottom=0;right=0;pointerEvents=1;" parent="qiMS5X3NjVRDsY-8KbQ8-337" vertex="1">
          <mxGeometry x="56" width="14" height="14" as="geometry">
            <mxRectangle width="14" height="14" as="alternateBounds" />
          </mxGeometry>
        </mxCell>
        <mxCell id="qiMS5X3NjVRDsY-8KbQ8-343" value="" style="shape=partialRectangle;html=1;whiteSpace=wrap;connectable=0;overflow=hidden;top=0;left=0;bottom=0;right=0;pointerEvents=1;fillColor=#fff2cc;strokeColor=#d6b656;" parent="qiMS5X3NjVRDsY-8KbQ8-337" vertex="1">
          <mxGeometry x="70" width="14" height="14" as="geometry">
            <mxRectangle width="14" height="14" as="alternateBounds" />
          </mxGeometry>
        </mxCell>
        <mxCell id="qiMS5X3NjVRDsY-8KbQ8-348" value="" style="shape=tableRow;horizontal=0;startSize=0;swimlaneHead=0;swimlaneBody=0;strokeColor=inherit;top=0;left=0;bottom=0;right=0;collapsible=0;dropTarget=0;fillColor=none;points=[[0,0.5],[1,0.5]];portConstraint=eastwest;" parent="qiMS5X3NjVRDsY-8KbQ8-325" vertex="1">
          <mxGeometry y="30" width="84" height="16" as="geometry" />
        </mxCell>
        <mxCell id="qiMS5X3NjVRDsY-8KbQ8-349" value="" style="shape=partialRectangle;html=1;whiteSpace=wrap;connectable=0;overflow=hidden;top=0;left=0;bottom=0;right=0;pointerEvents=1;" parent="qiMS5X3NjVRDsY-8KbQ8-348" vertex="1">
          <mxGeometry width="14" height="16" as="geometry">
            <mxRectangle width="14" height="16" as="alternateBounds" />
          </mxGeometry>
        </mxCell>
        <mxCell id="qiMS5X3NjVRDsY-8KbQ8-350" value="" style="shape=partialRectangle;html=1;whiteSpace=wrap;connectable=0;overflow=hidden;top=0;left=0;bottom=0;right=0;pointerEvents=1;" parent="qiMS5X3NjVRDsY-8KbQ8-348" vertex="1">
          <mxGeometry x="14" width="14" height="16" as="geometry">
            <mxRectangle width="14" height="16" as="alternateBounds" />
          </mxGeometry>
        </mxCell>
        <mxCell id="qiMS5X3NjVRDsY-8KbQ8-351" value="" style="shape=partialRectangle;html=1;whiteSpace=wrap;connectable=0;overflow=hidden;top=0;left=0;bottom=0;right=0;pointerEvents=1;" parent="qiMS5X3NjVRDsY-8KbQ8-348" vertex="1">
          <mxGeometry x="28" width="14" height="16" as="geometry">
            <mxRectangle width="14" height="16" as="alternateBounds" />
          </mxGeometry>
        </mxCell>
        <mxCell id="qiMS5X3NjVRDsY-8KbQ8-352" value="" style="shape=partialRectangle;html=1;whiteSpace=wrap;connectable=0;overflow=hidden;top=0;left=0;bottom=0;right=0;pointerEvents=1;" parent="qiMS5X3NjVRDsY-8KbQ8-348" vertex="1">
          <mxGeometry x="42" width="14" height="16" as="geometry">
            <mxRectangle width="14" height="16" as="alternateBounds" />
          </mxGeometry>
        </mxCell>
        <mxCell id="qiMS5X3NjVRDsY-8KbQ8-353" value="" style="shape=partialRectangle;html=1;whiteSpace=wrap;connectable=0;overflow=hidden;top=0;left=0;bottom=0;right=0;pointerEvents=1;" parent="qiMS5X3NjVRDsY-8KbQ8-348" vertex="1">
          <mxGeometry x="56" width="14" height="16" as="geometry">
            <mxRectangle width="14" height="16" as="alternateBounds" />
          </mxGeometry>
        </mxCell>
        <mxCell id="qiMS5X3NjVRDsY-8KbQ8-354" value="" style="shape=partialRectangle;html=1;whiteSpace=wrap;connectable=0;overflow=hidden;top=0;left=0;bottom=0;right=0;pointerEvents=1;fillColor=#fff2cc;strokeColor=#d6b656;" parent="qiMS5X3NjVRDsY-8KbQ8-348" vertex="1">
          <mxGeometry x="70" width="14" height="16" as="geometry">
            <mxRectangle width="14" height="16" as="alternateBounds" />
          </mxGeometry>
        </mxCell>
        <mxCell id="qiMS5X3NjVRDsY-8KbQ8-403" value="" style="shape=table;startSize=0;container=1;collapsible=0;childLayout=tableLayout;" parent="1" vertex="1">
          <mxGeometry x="660" y="312" width="70" height="46" as="geometry" />
        </mxCell>
        <mxCell id="qiMS5X3NjVRDsY-8KbQ8-404" style="shape=tableRow;horizontal=0;startSize=0;swimlaneHead=0;swimlaneBody=0;strokeColor=inherit;top=0;left=0;bottom=0;right=0;collapsible=0;dropTarget=0;fillColor=none;points=[[0,0.5],[1,0.5]];portConstraint=eastwest;" parent="qiMS5X3NjVRDsY-8KbQ8-403" vertex="1">
          <mxGeometry width="70" height="16" as="geometry" />
        </mxCell>
        <mxCell id="qiMS5X3NjVRDsY-8KbQ8-405" style="shape=partialRectangle;html=1;whiteSpace=wrap;connectable=0;overflow=hidden;top=0;left=0;bottom=0;right=0;pointerEvents=1;fillColor=#dae8fc;strokeColor=#6c8ebf;" parent="qiMS5X3NjVRDsY-8KbQ8-404" vertex="1">
          <mxGeometry width="14" height="16" as="geometry">
            <mxRectangle width="14" height="16" as="alternateBounds" />
          </mxGeometry>
        </mxCell>
        <mxCell id="qiMS5X3NjVRDsY-8KbQ8-406" style="shape=partialRectangle;html=1;whiteSpace=wrap;connectable=0;overflow=hidden;top=0;left=0;bottom=0;right=0;pointerEvents=1;fillColor=#fff2cc;strokeColor=#d6b656;" parent="qiMS5X3NjVRDsY-8KbQ8-404" vertex="1">
          <mxGeometry x="14" width="14" height="16" as="geometry">
            <mxRectangle width="14" height="16" as="alternateBounds" />
          </mxGeometry>
        </mxCell>
        <mxCell id="qiMS5X3NjVRDsY-8KbQ8-407" style="shape=partialRectangle;html=1;whiteSpace=wrap;connectable=0;overflow=hidden;top=0;left=0;bottom=0;right=0;pointerEvents=1;fillColor=#fff2cc;strokeColor=#d6b656;" parent="qiMS5X3NjVRDsY-8KbQ8-404" vertex="1">
          <mxGeometry x="28" width="14" height="16" as="geometry">
            <mxRectangle width="14" height="16" as="alternateBounds" />
          </mxGeometry>
        </mxCell>
        <mxCell id="qiMS5X3NjVRDsY-8KbQ8-408" style="shape=partialRectangle;html=1;whiteSpace=wrap;connectable=0;overflow=hidden;top=0;left=0;bottom=0;right=0;pointerEvents=1;fillColor=#fff2cc;strokeColor=#d6b656;" parent="qiMS5X3NjVRDsY-8KbQ8-404" vertex="1">
          <mxGeometry x="42" width="14" height="16" as="geometry">
            <mxRectangle width="14" height="16" as="alternateBounds" />
          </mxGeometry>
        </mxCell>
        <mxCell id="qiMS5X3NjVRDsY-8KbQ8-409" style="shape=partialRectangle;html=1;whiteSpace=wrap;connectable=0;overflow=hidden;top=0;left=0;bottom=0;right=0;pointerEvents=1;fillColor=#fff2cc;strokeColor=#d6b656;" parent="qiMS5X3NjVRDsY-8KbQ8-404" vertex="1">
          <mxGeometry x="56" width="14" height="16" as="geometry">
            <mxRectangle width="14" height="16" as="alternateBounds" />
          </mxGeometry>
        </mxCell>
        <mxCell id="qiMS5X3NjVRDsY-8KbQ8-415" value="" style="shape=tableRow;horizontal=0;startSize=0;swimlaneHead=0;swimlaneBody=0;strokeColor=inherit;top=0;left=0;bottom=0;right=0;collapsible=0;dropTarget=0;fillColor=none;points=[[0,0.5],[1,0.5]];portConstraint=eastwest;" parent="qiMS5X3NjVRDsY-8KbQ8-403" vertex="1">
          <mxGeometry y="16" width="70" height="14" as="geometry" />
        </mxCell>
        <mxCell id="qiMS5X3NjVRDsY-8KbQ8-416" value="" style="shape=partialRectangle;html=1;whiteSpace=wrap;connectable=0;overflow=hidden;top=0;left=0;bottom=0;right=0;pointerEvents=1;fillColor=#fff2cc;strokeColor=#d6b656;" parent="qiMS5X3NjVRDsY-8KbQ8-415" vertex="1">
          <mxGeometry width="14" height="14" as="geometry">
            <mxRectangle width="14" height="14" as="alternateBounds" />
          </mxGeometry>
        </mxCell>
        <mxCell id="qiMS5X3NjVRDsY-8KbQ8-417" value="" style="shape=partialRectangle;html=1;whiteSpace=wrap;connectable=0;overflow=hidden;top=0;left=0;bottom=0;right=0;pointerEvents=1;" parent="qiMS5X3NjVRDsY-8KbQ8-415" vertex="1">
          <mxGeometry x="14" width="14" height="14" as="geometry">
            <mxRectangle width="14" height="14" as="alternateBounds" />
          </mxGeometry>
        </mxCell>
        <mxCell id="qiMS5X3NjVRDsY-8KbQ8-418" value="" style="shape=partialRectangle;html=1;whiteSpace=wrap;connectable=0;overflow=hidden;top=0;left=0;bottom=0;right=0;pointerEvents=1;" parent="qiMS5X3NjVRDsY-8KbQ8-415" vertex="1">
          <mxGeometry x="28" width="14" height="14" as="geometry">
            <mxRectangle width="14" height="14" as="alternateBounds" />
          </mxGeometry>
        </mxCell>
        <mxCell id="qiMS5X3NjVRDsY-8KbQ8-419" value="" style="shape=partialRectangle;html=1;whiteSpace=wrap;connectable=0;overflow=hidden;top=0;left=0;bottom=0;right=0;pointerEvents=1;" parent="qiMS5X3NjVRDsY-8KbQ8-415" vertex="1">
          <mxGeometry x="42" width="14" height="14" as="geometry">
            <mxRectangle width="14" height="14" as="alternateBounds" />
          </mxGeometry>
        </mxCell>
        <mxCell id="qiMS5X3NjVRDsY-8KbQ8-420" value="" style="shape=partialRectangle;html=1;whiteSpace=wrap;connectable=0;overflow=hidden;top=0;left=0;bottom=0;right=0;pointerEvents=1;" parent="qiMS5X3NjVRDsY-8KbQ8-415" vertex="1">
          <mxGeometry x="56" width="14" height="14" as="geometry">
            <mxRectangle width="14" height="14" as="alternateBounds" />
          </mxGeometry>
        </mxCell>
        <mxCell id="qiMS5X3NjVRDsY-8KbQ8-426" value="" style="shape=tableRow;horizontal=0;startSize=0;swimlaneHead=0;swimlaneBody=0;strokeColor=inherit;top=0;left=0;bottom=0;right=0;collapsible=0;dropTarget=0;fillColor=none;points=[[0,0.5],[1,0.5]];portConstraint=eastwest;" parent="qiMS5X3NjVRDsY-8KbQ8-403" vertex="1">
          <mxGeometry y="30" width="70" height="16" as="geometry" />
        </mxCell>
        <mxCell id="qiMS5X3NjVRDsY-8KbQ8-427" value="" style="shape=partialRectangle;html=1;whiteSpace=wrap;connectable=0;overflow=hidden;top=0;left=0;bottom=0;right=0;pointerEvents=1;fillColor=#fff2cc;strokeColor=#d6b656;" parent="qiMS5X3NjVRDsY-8KbQ8-426" vertex="1">
          <mxGeometry width="14" height="16" as="geometry">
            <mxRectangle width="14" height="16" as="alternateBounds" />
          </mxGeometry>
        </mxCell>
        <mxCell id="qiMS5X3NjVRDsY-8KbQ8-428" value="" style="shape=partialRectangle;html=1;whiteSpace=wrap;connectable=0;overflow=hidden;top=0;left=0;bottom=0;right=0;pointerEvents=1;" parent="qiMS5X3NjVRDsY-8KbQ8-426" vertex="1">
          <mxGeometry x="14" width="14" height="16" as="geometry">
            <mxRectangle width="14" height="16" as="alternateBounds" />
          </mxGeometry>
        </mxCell>
        <mxCell id="qiMS5X3NjVRDsY-8KbQ8-429" value="" style="shape=partialRectangle;html=1;whiteSpace=wrap;connectable=0;overflow=hidden;top=0;left=0;bottom=0;right=0;pointerEvents=1;" parent="qiMS5X3NjVRDsY-8KbQ8-426" vertex="1">
          <mxGeometry x="28" width="14" height="16" as="geometry">
            <mxRectangle width="14" height="16" as="alternateBounds" />
          </mxGeometry>
        </mxCell>
        <mxCell id="qiMS5X3NjVRDsY-8KbQ8-430" value="" style="shape=partialRectangle;html=1;whiteSpace=wrap;connectable=0;overflow=hidden;top=0;left=0;bottom=0;right=0;pointerEvents=1;" parent="qiMS5X3NjVRDsY-8KbQ8-426" vertex="1">
          <mxGeometry x="42" width="14" height="16" as="geometry">
            <mxRectangle width="14" height="16" as="alternateBounds" />
          </mxGeometry>
        </mxCell>
        <mxCell id="qiMS5X3NjVRDsY-8KbQ8-431" value="" style="shape=partialRectangle;html=1;whiteSpace=wrap;connectable=0;overflow=hidden;top=0;left=0;bottom=0;right=0;pointerEvents=1;" parent="qiMS5X3NjVRDsY-8KbQ8-426" vertex="1">
          <mxGeometry x="56" width="14" height="16" as="geometry">
            <mxRectangle width="14" height="16" as="alternateBounds" />
          </mxGeometry>
        </mxCell>
        <mxCell id="qiMS5X3NjVRDsY-8KbQ8-481" value="" style="shape=table;startSize=0;container=1;collapsible=0;childLayout=tableLayout;" parent="1" vertex="1">
          <mxGeometry x="60" y="230" width="140" height="110" as="geometry" />
        </mxCell>
        <mxCell id="qiMS5X3NjVRDsY-8KbQ8-482" style="shape=tableRow;horizontal=0;startSize=0;swimlaneHead=0;swimlaneBody=0;strokeColor=inherit;top=0;left=0;bottom=0;right=0;collapsible=0;dropTarget=0;fillColor=none;points=[[0,0.5],[1,0.5]];portConstraint=eastwest;" parent="qiMS5X3NjVRDsY-8KbQ8-481" vertex="1">
          <mxGeometry width="140" height="16" as="geometry" />
        </mxCell>
        <mxCell id="qiMS5X3NjVRDsY-8KbQ8-483" style="shape=partialRectangle;html=1;whiteSpace=wrap;connectable=0;overflow=hidden;top=0;left=0;bottom=0;right=0;pointerEvents=1;" parent="qiMS5X3NjVRDsY-8KbQ8-482" vertex="1">
          <mxGeometry width="14" height="16" as="geometry">
            <mxRectangle width="14" height="16" as="alternateBounds" />
          </mxGeometry>
        </mxCell>
        <mxCell id="qiMS5X3NjVRDsY-8KbQ8-484" style="shape=partialRectangle;html=1;whiteSpace=wrap;connectable=0;overflow=hidden;top=0;left=0;bottom=0;right=0;pointerEvents=1;" parent="qiMS5X3NjVRDsY-8KbQ8-482" vertex="1">
          <mxGeometry x="14" width="14" height="16" as="geometry">
            <mxRectangle width="14" height="16" as="alternateBounds" />
          </mxGeometry>
        </mxCell>
        <mxCell id="qiMS5X3NjVRDsY-8KbQ8-485" style="shape=partialRectangle;html=1;whiteSpace=wrap;connectable=0;overflow=hidden;top=0;left=0;bottom=0;right=0;pointerEvents=1;" parent="qiMS5X3NjVRDsY-8KbQ8-482" vertex="1">
          <mxGeometry x="28" width="14" height="16" as="geometry">
            <mxRectangle width="14" height="16" as="alternateBounds" />
          </mxGeometry>
        </mxCell>
        <mxCell id="qiMS5X3NjVRDsY-8KbQ8-486" style="shape=partialRectangle;html=1;whiteSpace=wrap;connectable=0;overflow=hidden;top=0;left=0;bottom=0;right=0;pointerEvents=1;" parent="qiMS5X3NjVRDsY-8KbQ8-482" vertex="1">
          <mxGeometry x="42" width="14" height="16" as="geometry">
            <mxRectangle width="14" height="16" as="alternateBounds" />
          </mxGeometry>
        </mxCell>
        <mxCell id="qiMS5X3NjVRDsY-8KbQ8-487" style="shape=partialRectangle;html=1;whiteSpace=wrap;connectable=0;overflow=hidden;top=0;left=0;bottom=0;right=0;pointerEvents=1;" parent="qiMS5X3NjVRDsY-8KbQ8-482" vertex="1">
          <mxGeometry x="56" width="14" height="16" as="geometry">
            <mxRectangle width="14" height="16" as="alternateBounds" />
          </mxGeometry>
        </mxCell>
        <mxCell id="qiMS5X3NjVRDsY-8KbQ8-488" style="shape=partialRectangle;html=1;whiteSpace=wrap;connectable=0;overflow=hidden;top=0;left=0;bottom=0;right=0;pointerEvents=1;" parent="qiMS5X3NjVRDsY-8KbQ8-482" vertex="1">
          <mxGeometry x="70" width="14" height="16" as="geometry">
            <mxRectangle width="14" height="16" as="alternateBounds" />
          </mxGeometry>
        </mxCell>
        <mxCell id="qiMS5X3NjVRDsY-8KbQ8-489" style="shape=partialRectangle;html=1;whiteSpace=wrap;connectable=0;overflow=hidden;top=0;left=0;bottom=0;right=0;pointerEvents=1;" parent="qiMS5X3NjVRDsY-8KbQ8-482" vertex="1">
          <mxGeometry x="84" width="14" height="16" as="geometry">
            <mxRectangle width="14" height="16" as="alternateBounds" />
          </mxGeometry>
        </mxCell>
        <mxCell id="qiMS5X3NjVRDsY-8KbQ8-490" style="shape=partialRectangle;html=1;whiteSpace=wrap;connectable=0;overflow=hidden;top=0;left=0;bottom=0;right=0;pointerEvents=1;" parent="qiMS5X3NjVRDsY-8KbQ8-482" vertex="1">
          <mxGeometry x="98" width="14" height="16" as="geometry">
            <mxRectangle width="14" height="16" as="alternateBounds" />
          </mxGeometry>
        </mxCell>
        <mxCell id="qiMS5X3NjVRDsY-8KbQ8-491" style="shape=partialRectangle;html=1;whiteSpace=wrap;connectable=0;overflow=hidden;top=0;left=0;bottom=0;right=0;pointerEvents=1;" parent="qiMS5X3NjVRDsY-8KbQ8-482" vertex="1">
          <mxGeometry x="112" width="14" height="16" as="geometry">
            <mxRectangle width="14" height="16" as="alternateBounds" />
          </mxGeometry>
        </mxCell>
        <mxCell id="qiMS5X3NjVRDsY-8KbQ8-492" style="shape=partialRectangle;html=1;whiteSpace=wrap;connectable=0;overflow=hidden;top=0;left=0;bottom=0;right=0;pointerEvents=1;" parent="qiMS5X3NjVRDsY-8KbQ8-482" vertex="1">
          <mxGeometry x="126" width="14" height="16" as="geometry">
            <mxRectangle width="14" height="16" as="alternateBounds" />
          </mxGeometry>
        </mxCell>
        <mxCell id="qiMS5X3NjVRDsY-8KbQ8-493" value="" style="shape=tableRow;horizontal=0;startSize=0;swimlaneHead=0;swimlaneBody=0;strokeColor=inherit;top=0;left=0;bottom=0;right=0;collapsible=0;dropTarget=0;fillColor=none;points=[[0,0.5],[1,0.5]];portConstraint=eastwest;" parent="qiMS5X3NjVRDsY-8KbQ8-481" vertex="1">
          <mxGeometry y="16" width="140" height="14" as="geometry" />
        </mxCell>
        <mxCell id="qiMS5X3NjVRDsY-8KbQ8-494" value="" style="shape=partialRectangle;html=1;whiteSpace=wrap;connectable=0;overflow=hidden;top=0;left=0;bottom=0;right=0;pointerEvents=1;" parent="qiMS5X3NjVRDsY-8KbQ8-493" vertex="1">
          <mxGeometry width="14" height="14" as="geometry">
            <mxRectangle width="14" height="14" as="alternateBounds" />
          </mxGeometry>
        </mxCell>
        <mxCell id="qiMS5X3NjVRDsY-8KbQ8-495" value="" style="shape=partialRectangle;html=1;whiteSpace=wrap;connectable=0;overflow=hidden;top=0;left=0;bottom=0;right=0;pointerEvents=1;" parent="qiMS5X3NjVRDsY-8KbQ8-493" vertex="1">
          <mxGeometry x="14" width="14" height="14" as="geometry">
            <mxRectangle width="14" height="14" as="alternateBounds" />
          </mxGeometry>
        </mxCell>
        <mxCell id="qiMS5X3NjVRDsY-8KbQ8-496" value="" style="shape=partialRectangle;html=1;whiteSpace=wrap;connectable=0;overflow=hidden;top=0;left=0;bottom=0;right=0;pointerEvents=1;" parent="qiMS5X3NjVRDsY-8KbQ8-493" vertex="1">
          <mxGeometry x="28" width="14" height="14" as="geometry">
            <mxRectangle width="14" height="14" as="alternateBounds" />
          </mxGeometry>
        </mxCell>
        <mxCell id="qiMS5X3NjVRDsY-8KbQ8-497" value="" style="shape=partialRectangle;html=1;whiteSpace=wrap;connectable=0;overflow=hidden;top=0;left=0;bottom=0;right=0;pointerEvents=1;" parent="qiMS5X3NjVRDsY-8KbQ8-493" vertex="1">
          <mxGeometry x="42" width="14" height="14" as="geometry">
            <mxRectangle width="14" height="14" as="alternateBounds" />
          </mxGeometry>
        </mxCell>
        <mxCell id="qiMS5X3NjVRDsY-8KbQ8-498" value="" style="shape=partialRectangle;html=1;whiteSpace=wrap;connectable=0;overflow=hidden;top=0;left=0;bottom=0;right=0;pointerEvents=1;" parent="qiMS5X3NjVRDsY-8KbQ8-493" vertex="1">
          <mxGeometry x="56" width="14" height="14" as="geometry">
            <mxRectangle width="14" height="14" as="alternateBounds" />
          </mxGeometry>
        </mxCell>
        <mxCell id="qiMS5X3NjVRDsY-8KbQ8-499" value="" style="shape=partialRectangle;html=1;whiteSpace=wrap;connectable=0;overflow=hidden;top=0;left=0;bottom=0;right=0;pointerEvents=1;" parent="qiMS5X3NjVRDsY-8KbQ8-493" vertex="1">
          <mxGeometry x="70" width="14" height="14" as="geometry">
            <mxRectangle width="14" height="14" as="alternateBounds" />
          </mxGeometry>
        </mxCell>
        <mxCell id="qiMS5X3NjVRDsY-8KbQ8-500" value="" style="shape=partialRectangle;html=1;whiteSpace=wrap;connectable=0;overflow=hidden;top=0;left=0;bottom=0;right=0;pointerEvents=1;" parent="qiMS5X3NjVRDsY-8KbQ8-493" vertex="1">
          <mxGeometry x="84" width="14" height="14" as="geometry">
            <mxRectangle width="14" height="14" as="alternateBounds" />
          </mxGeometry>
        </mxCell>
        <mxCell id="qiMS5X3NjVRDsY-8KbQ8-501" value="" style="shape=partialRectangle;html=1;whiteSpace=wrap;connectable=0;overflow=hidden;top=0;left=0;bottom=0;right=0;pointerEvents=1;" parent="qiMS5X3NjVRDsY-8KbQ8-493" vertex="1">
          <mxGeometry x="98" width="14" height="14" as="geometry">
            <mxRectangle width="14" height="14" as="alternateBounds" />
          </mxGeometry>
        </mxCell>
        <mxCell id="qiMS5X3NjVRDsY-8KbQ8-502" value="" style="shape=partialRectangle;html=1;whiteSpace=wrap;connectable=0;overflow=hidden;top=0;left=0;bottom=0;right=0;pointerEvents=1;" parent="qiMS5X3NjVRDsY-8KbQ8-493" vertex="1">
          <mxGeometry x="112" width="14" height="14" as="geometry">
            <mxRectangle width="14" height="14" as="alternateBounds" />
          </mxGeometry>
        </mxCell>
        <mxCell id="qiMS5X3NjVRDsY-8KbQ8-503" value="" style="shape=partialRectangle;html=1;whiteSpace=wrap;connectable=0;overflow=hidden;top=0;left=0;bottom=0;right=0;pointerEvents=1;" parent="qiMS5X3NjVRDsY-8KbQ8-493" vertex="1">
          <mxGeometry x="126" width="14" height="14" as="geometry">
            <mxRectangle width="14" height="14" as="alternateBounds" />
          </mxGeometry>
        </mxCell>
        <mxCell id="qiMS5X3NjVRDsY-8KbQ8-504" value="" style="shape=tableRow;horizontal=0;startSize=0;swimlaneHead=0;swimlaneBody=0;strokeColor=inherit;top=0;left=0;bottom=0;right=0;collapsible=0;dropTarget=0;fillColor=none;points=[[0,0.5],[1,0.5]];portConstraint=eastwest;" parent="qiMS5X3NjVRDsY-8KbQ8-481" vertex="1">
          <mxGeometry y="30" width="140" height="16" as="geometry" />
        </mxCell>
        <mxCell id="qiMS5X3NjVRDsY-8KbQ8-505" value="" style="shape=partialRectangle;html=1;whiteSpace=wrap;connectable=0;overflow=hidden;top=0;left=0;bottom=0;right=0;pointerEvents=1;" parent="qiMS5X3NjVRDsY-8KbQ8-504" vertex="1">
          <mxGeometry width="14" height="16" as="geometry">
            <mxRectangle width="14" height="16" as="alternateBounds" />
          </mxGeometry>
        </mxCell>
        <mxCell id="qiMS5X3NjVRDsY-8KbQ8-506" value="" style="shape=partialRectangle;html=1;whiteSpace=wrap;connectable=0;overflow=hidden;top=0;left=0;bottom=0;right=0;pointerEvents=1;" parent="qiMS5X3NjVRDsY-8KbQ8-504" vertex="1">
          <mxGeometry x="14" width="14" height="16" as="geometry">
            <mxRectangle width="14" height="16" as="alternateBounds" />
          </mxGeometry>
        </mxCell>
        <mxCell id="qiMS5X3NjVRDsY-8KbQ8-507" value="" style="shape=partialRectangle;html=1;whiteSpace=wrap;connectable=0;overflow=hidden;top=0;left=0;bottom=0;right=0;pointerEvents=1;" parent="qiMS5X3NjVRDsY-8KbQ8-504" vertex="1">
          <mxGeometry x="28" width="14" height="16" as="geometry">
            <mxRectangle width="14" height="16" as="alternateBounds" />
          </mxGeometry>
        </mxCell>
        <mxCell id="qiMS5X3NjVRDsY-8KbQ8-508" value="" style="shape=partialRectangle;html=1;whiteSpace=wrap;connectable=0;overflow=hidden;top=0;left=0;bottom=0;right=0;pointerEvents=1;" parent="qiMS5X3NjVRDsY-8KbQ8-504" vertex="1">
          <mxGeometry x="42" width="14" height="16" as="geometry">
            <mxRectangle width="14" height="16" as="alternateBounds" />
          </mxGeometry>
        </mxCell>
        <mxCell id="qiMS5X3NjVRDsY-8KbQ8-509" value="" style="shape=partialRectangle;html=1;whiteSpace=wrap;connectable=0;overflow=hidden;top=0;left=0;bottom=0;right=0;pointerEvents=1;" parent="qiMS5X3NjVRDsY-8KbQ8-504" vertex="1">
          <mxGeometry x="56" width="14" height="16" as="geometry">
            <mxRectangle width="14" height="16" as="alternateBounds" />
          </mxGeometry>
        </mxCell>
        <mxCell id="qiMS5X3NjVRDsY-8KbQ8-510" value="" style="shape=partialRectangle;html=1;whiteSpace=wrap;connectable=0;overflow=hidden;top=0;left=0;bottom=0;right=0;pointerEvents=1;" parent="qiMS5X3NjVRDsY-8KbQ8-504" vertex="1">
          <mxGeometry x="70" width="14" height="16" as="geometry">
            <mxRectangle width="14" height="16" as="alternateBounds" />
          </mxGeometry>
        </mxCell>
        <mxCell id="qiMS5X3NjVRDsY-8KbQ8-511" value="" style="shape=partialRectangle;html=1;whiteSpace=wrap;connectable=0;overflow=hidden;top=0;left=0;bottom=0;right=0;pointerEvents=1;" parent="qiMS5X3NjVRDsY-8KbQ8-504" vertex="1">
          <mxGeometry x="84" width="14" height="16" as="geometry">
            <mxRectangle width="14" height="16" as="alternateBounds" />
          </mxGeometry>
        </mxCell>
        <mxCell id="qiMS5X3NjVRDsY-8KbQ8-512" value="" style="shape=partialRectangle;html=1;whiteSpace=wrap;connectable=0;overflow=hidden;top=0;left=0;bottom=0;right=0;pointerEvents=1;" parent="qiMS5X3NjVRDsY-8KbQ8-504" vertex="1">
          <mxGeometry x="98" width="14" height="16" as="geometry">
            <mxRectangle width="14" height="16" as="alternateBounds" />
          </mxGeometry>
        </mxCell>
        <mxCell id="qiMS5X3NjVRDsY-8KbQ8-513" value="" style="shape=partialRectangle;html=1;whiteSpace=wrap;connectable=0;overflow=hidden;top=0;left=0;bottom=0;right=0;pointerEvents=1;" parent="qiMS5X3NjVRDsY-8KbQ8-504" vertex="1">
          <mxGeometry x="112" width="14" height="16" as="geometry">
            <mxRectangle width="14" height="16" as="alternateBounds" />
          </mxGeometry>
        </mxCell>
        <mxCell id="qiMS5X3NjVRDsY-8KbQ8-514" value="" style="shape=partialRectangle;html=1;whiteSpace=wrap;connectable=0;overflow=hidden;top=0;left=0;bottom=0;right=0;pointerEvents=1;" parent="qiMS5X3NjVRDsY-8KbQ8-504" vertex="1">
          <mxGeometry x="126" width="14" height="16" as="geometry">
            <mxRectangle width="14" height="16" as="alternateBounds" />
          </mxGeometry>
        </mxCell>
        <mxCell id="qiMS5X3NjVRDsY-8KbQ8-515" value="" style="shape=tableRow;horizontal=0;startSize=0;swimlaneHead=0;swimlaneBody=0;strokeColor=inherit;top=0;left=0;bottom=0;right=0;collapsible=0;dropTarget=0;fillColor=none;points=[[0,0.5],[1,0.5]];portConstraint=eastwest;" parent="qiMS5X3NjVRDsY-8KbQ8-481" vertex="1">
          <mxGeometry y="46" width="140" height="16" as="geometry" />
        </mxCell>
        <mxCell id="qiMS5X3NjVRDsY-8KbQ8-516" value="" style="shape=partialRectangle;html=1;whiteSpace=wrap;connectable=0;overflow=hidden;top=0;left=0;bottom=0;right=0;pointerEvents=1;" parent="qiMS5X3NjVRDsY-8KbQ8-515" vertex="1">
          <mxGeometry width="14" height="16" as="geometry">
            <mxRectangle width="14" height="16" as="alternateBounds" />
          </mxGeometry>
        </mxCell>
        <mxCell id="qiMS5X3NjVRDsY-8KbQ8-517" value="" style="shape=partialRectangle;html=1;whiteSpace=wrap;connectable=0;overflow=hidden;top=0;left=0;bottom=0;right=0;pointerEvents=1;" parent="qiMS5X3NjVRDsY-8KbQ8-515" vertex="1">
          <mxGeometry x="14" width="14" height="16" as="geometry">
            <mxRectangle width="14" height="16" as="alternateBounds" />
          </mxGeometry>
        </mxCell>
        <mxCell id="qiMS5X3NjVRDsY-8KbQ8-518" value="" style="shape=partialRectangle;html=1;whiteSpace=wrap;connectable=0;overflow=hidden;top=0;left=0;bottom=0;right=0;pointerEvents=1;" parent="qiMS5X3NjVRDsY-8KbQ8-515" vertex="1">
          <mxGeometry x="28" width="14" height="16" as="geometry">
            <mxRectangle width="14" height="16" as="alternateBounds" />
          </mxGeometry>
        </mxCell>
        <mxCell id="qiMS5X3NjVRDsY-8KbQ8-519" value="" style="shape=partialRectangle;html=1;whiteSpace=wrap;connectable=0;overflow=hidden;top=0;left=0;bottom=0;right=0;pointerEvents=1;" parent="qiMS5X3NjVRDsY-8KbQ8-515" vertex="1">
          <mxGeometry x="42" width="14" height="16" as="geometry">
            <mxRectangle width="14" height="16" as="alternateBounds" />
          </mxGeometry>
        </mxCell>
        <mxCell id="qiMS5X3NjVRDsY-8KbQ8-520" value="" style="shape=partialRectangle;html=1;whiteSpace=wrap;connectable=0;overflow=hidden;top=0;left=0;bottom=0;right=0;pointerEvents=1;" parent="qiMS5X3NjVRDsY-8KbQ8-515" vertex="1">
          <mxGeometry x="56" width="14" height="16" as="geometry">
            <mxRectangle width="14" height="16" as="alternateBounds" />
          </mxGeometry>
        </mxCell>
        <mxCell id="qiMS5X3NjVRDsY-8KbQ8-521" value="" style="shape=partialRectangle;html=1;whiteSpace=wrap;connectable=0;overflow=hidden;top=0;left=0;bottom=0;right=0;pointerEvents=1;" parent="qiMS5X3NjVRDsY-8KbQ8-515" vertex="1">
          <mxGeometry x="70" width="14" height="16" as="geometry">
            <mxRectangle width="14" height="16" as="alternateBounds" />
          </mxGeometry>
        </mxCell>
        <mxCell id="qiMS5X3NjVRDsY-8KbQ8-522" value="" style="shape=partialRectangle;html=1;whiteSpace=wrap;connectable=0;overflow=hidden;top=0;left=0;bottom=0;right=0;pointerEvents=1;" parent="qiMS5X3NjVRDsY-8KbQ8-515" vertex="1">
          <mxGeometry x="84" width="14" height="16" as="geometry">
            <mxRectangle width="14" height="16" as="alternateBounds" />
          </mxGeometry>
        </mxCell>
        <mxCell id="qiMS5X3NjVRDsY-8KbQ8-523" value="" style="shape=partialRectangle;html=1;whiteSpace=wrap;connectable=0;overflow=hidden;top=0;left=0;bottom=0;right=0;pointerEvents=1;" parent="qiMS5X3NjVRDsY-8KbQ8-515" vertex="1">
          <mxGeometry x="98" width="14" height="16" as="geometry">
            <mxRectangle width="14" height="16" as="alternateBounds" />
          </mxGeometry>
        </mxCell>
        <mxCell id="qiMS5X3NjVRDsY-8KbQ8-524" value="" style="shape=partialRectangle;html=1;whiteSpace=wrap;connectable=0;overflow=hidden;top=0;left=0;bottom=0;right=0;pointerEvents=1;" parent="qiMS5X3NjVRDsY-8KbQ8-515" vertex="1">
          <mxGeometry x="112" width="14" height="16" as="geometry">
            <mxRectangle width="14" height="16" as="alternateBounds" />
          </mxGeometry>
        </mxCell>
        <mxCell id="qiMS5X3NjVRDsY-8KbQ8-525" value="" style="shape=partialRectangle;html=1;whiteSpace=wrap;connectable=0;overflow=hidden;top=0;left=0;bottom=0;right=0;pointerEvents=1;" parent="qiMS5X3NjVRDsY-8KbQ8-515" vertex="1">
          <mxGeometry x="126" width="14" height="16" as="geometry">
            <mxRectangle width="14" height="16" as="alternateBounds" />
          </mxGeometry>
        </mxCell>
        <mxCell id="qiMS5X3NjVRDsY-8KbQ8-526" value="" style="shape=tableRow;horizontal=0;startSize=0;swimlaneHead=0;swimlaneBody=0;strokeColor=inherit;top=0;left=0;bottom=0;right=0;collapsible=0;dropTarget=0;fillColor=none;points=[[0,0.5],[1,0.5]];portConstraint=eastwest;" parent="qiMS5X3NjVRDsY-8KbQ8-481" vertex="1">
          <mxGeometry y="62" width="140" height="16" as="geometry" />
        </mxCell>
        <mxCell id="qiMS5X3NjVRDsY-8KbQ8-527" value="" style="shape=partialRectangle;html=1;whiteSpace=wrap;connectable=0;overflow=hidden;top=0;left=0;bottom=0;right=0;pointerEvents=1;" parent="qiMS5X3NjVRDsY-8KbQ8-526" vertex="1">
          <mxGeometry width="14" height="16" as="geometry">
            <mxRectangle width="14" height="16" as="alternateBounds" />
          </mxGeometry>
        </mxCell>
        <mxCell id="qiMS5X3NjVRDsY-8KbQ8-528" value="" style="shape=partialRectangle;html=1;whiteSpace=wrap;connectable=0;overflow=hidden;top=0;left=0;bottom=0;right=0;pointerEvents=1;" parent="qiMS5X3NjVRDsY-8KbQ8-526" vertex="1">
          <mxGeometry x="14" width="14" height="16" as="geometry">
            <mxRectangle width="14" height="16" as="alternateBounds" />
          </mxGeometry>
        </mxCell>
        <mxCell id="qiMS5X3NjVRDsY-8KbQ8-529" value="" style="shape=partialRectangle;html=1;whiteSpace=wrap;connectable=0;overflow=hidden;top=0;left=0;bottom=0;right=0;pointerEvents=1;" parent="qiMS5X3NjVRDsY-8KbQ8-526" vertex="1">
          <mxGeometry x="28" width="14" height="16" as="geometry">
            <mxRectangle width="14" height="16" as="alternateBounds" />
          </mxGeometry>
        </mxCell>
        <mxCell id="qiMS5X3NjVRDsY-8KbQ8-530" value="" style="shape=partialRectangle;html=1;whiteSpace=wrap;connectable=0;overflow=hidden;top=0;left=0;bottom=0;right=0;pointerEvents=1;" parent="qiMS5X3NjVRDsY-8KbQ8-526" vertex="1">
          <mxGeometry x="42" width="14" height="16" as="geometry">
            <mxRectangle width="14" height="16" as="alternateBounds" />
          </mxGeometry>
        </mxCell>
        <mxCell id="qiMS5X3NjVRDsY-8KbQ8-531" value="" style="shape=partialRectangle;html=1;whiteSpace=wrap;connectable=0;overflow=hidden;top=0;left=0;bottom=0;right=0;pointerEvents=1;" parent="qiMS5X3NjVRDsY-8KbQ8-526" vertex="1">
          <mxGeometry x="56" width="14" height="16" as="geometry">
            <mxRectangle width="14" height="16" as="alternateBounds" />
          </mxGeometry>
        </mxCell>
        <mxCell id="qiMS5X3NjVRDsY-8KbQ8-532" value="" style="shape=partialRectangle;html=1;whiteSpace=wrap;connectable=0;overflow=hidden;top=0;left=0;bottom=0;right=0;pointerEvents=1;" parent="qiMS5X3NjVRDsY-8KbQ8-526" vertex="1">
          <mxGeometry x="70" width="14" height="16" as="geometry">
            <mxRectangle width="14" height="16" as="alternateBounds" />
          </mxGeometry>
        </mxCell>
        <mxCell id="qiMS5X3NjVRDsY-8KbQ8-533" value="" style="shape=partialRectangle;html=1;whiteSpace=wrap;connectable=0;overflow=hidden;top=0;left=0;bottom=0;right=0;pointerEvents=1;" parent="qiMS5X3NjVRDsY-8KbQ8-526" vertex="1">
          <mxGeometry x="84" width="14" height="16" as="geometry">
            <mxRectangle width="14" height="16" as="alternateBounds" />
          </mxGeometry>
        </mxCell>
        <mxCell id="qiMS5X3NjVRDsY-8KbQ8-534" value="" style="shape=partialRectangle;html=1;whiteSpace=wrap;connectable=0;overflow=hidden;top=0;left=0;bottom=0;right=0;pointerEvents=1;" parent="qiMS5X3NjVRDsY-8KbQ8-526" vertex="1">
          <mxGeometry x="98" width="14" height="16" as="geometry">
            <mxRectangle width="14" height="16" as="alternateBounds" />
          </mxGeometry>
        </mxCell>
        <mxCell id="qiMS5X3NjVRDsY-8KbQ8-535" value="" style="shape=partialRectangle;html=1;whiteSpace=wrap;connectable=0;overflow=hidden;top=0;left=0;bottom=0;right=0;pointerEvents=1;" parent="qiMS5X3NjVRDsY-8KbQ8-526" vertex="1">
          <mxGeometry x="112" width="14" height="16" as="geometry">
            <mxRectangle width="14" height="16" as="alternateBounds" />
          </mxGeometry>
        </mxCell>
        <mxCell id="qiMS5X3NjVRDsY-8KbQ8-536" value="" style="shape=partialRectangle;html=1;whiteSpace=wrap;connectable=0;overflow=hidden;top=0;left=0;bottom=0;right=0;pointerEvents=1;" parent="qiMS5X3NjVRDsY-8KbQ8-526" vertex="1">
          <mxGeometry x="126" width="14" height="16" as="geometry">
            <mxRectangle width="14" height="16" as="alternateBounds" />
          </mxGeometry>
        </mxCell>
        <mxCell id="qiMS5X3NjVRDsY-8KbQ8-537" value="" style="shape=tableRow;horizontal=0;startSize=0;swimlaneHead=0;swimlaneBody=0;strokeColor=inherit;top=0;left=0;bottom=0;right=0;collapsible=0;dropTarget=0;fillColor=none;points=[[0,0.5],[1,0.5]];portConstraint=eastwest;" parent="qiMS5X3NjVRDsY-8KbQ8-481" vertex="1">
          <mxGeometry y="78" width="140" height="14" as="geometry" />
        </mxCell>
        <mxCell id="qiMS5X3NjVRDsY-8KbQ8-538" value="" style="shape=partialRectangle;html=1;whiteSpace=wrap;connectable=0;overflow=hidden;top=0;left=0;bottom=0;right=0;pointerEvents=1;" parent="qiMS5X3NjVRDsY-8KbQ8-537" vertex="1">
          <mxGeometry width="14" height="14" as="geometry">
            <mxRectangle width="14" height="14" as="alternateBounds" />
          </mxGeometry>
        </mxCell>
        <mxCell id="qiMS5X3NjVRDsY-8KbQ8-539" value="" style="shape=partialRectangle;html=1;whiteSpace=wrap;connectable=0;overflow=hidden;top=0;left=0;bottom=0;right=0;pointerEvents=1;" parent="qiMS5X3NjVRDsY-8KbQ8-537" vertex="1">
          <mxGeometry x="14" width="14" height="14" as="geometry">
            <mxRectangle width="14" height="14" as="alternateBounds" />
          </mxGeometry>
        </mxCell>
        <mxCell id="qiMS5X3NjVRDsY-8KbQ8-540" value="" style="shape=partialRectangle;html=1;whiteSpace=wrap;connectable=0;overflow=hidden;top=0;left=0;bottom=0;right=0;pointerEvents=1;" parent="qiMS5X3NjVRDsY-8KbQ8-537" vertex="1">
          <mxGeometry x="28" width="14" height="14" as="geometry">
            <mxRectangle width="14" height="14" as="alternateBounds" />
          </mxGeometry>
        </mxCell>
        <mxCell id="qiMS5X3NjVRDsY-8KbQ8-541" value="" style="shape=partialRectangle;html=1;whiteSpace=wrap;connectable=0;overflow=hidden;top=0;left=0;bottom=0;right=0;pointerEvents=1;" parent="qiMS5X3NjVRDsY-8KbQ8-537" vertex="1">
          <mxGeometry x="42" width="14" height="14" as="geometry">
            <mxRectangle width="14" height="14" as="alternateBounds" />
          </mxGeometry>
        </mxCell>
        <mxCell id="qiMS5X3NjVRDsY-8KbQ8-542" value="" style="shape=partialRectangle;html=1;whiteSpace=wrap;connectable=0;overflow=hidden;top=0;left=0;bottom=0;right=0;pointerEvents=1;" parent="qiMS5X3NjVRDsY-8KbQ8-537" vertex="1">
          <mxGeometry x="56" width="14" height="14" as="geometry">
            <mxRectangle width="14" height="14" as="alternateBounds" />
          </mxGeometry>
        </mxCell>
        <mxCell id="qiMS5X3NjVRDsY-8KbQ8-543" value="" style="shape=partialRectangle;html=1;whiteSpace=wrap;connectable=0;overflow=hidden;top=0;left=0;bottom=0;right=0;pointerEvents=1;" parent="qiMS5X3NjVRDsY-8KbQ8-537" vertex="1">
          <mxGeometry x="70" width="14" height="14" as="geometry">
            <mxRectangle width="14" height="14" as="alternateBounds" />
          </mxGeometry>
        </mxCell>
        <mxCell id="qiMS5X3NjVRDsY-8KbQ8-544" value="" style="shape=partialRectangle;html=1;whiteSpace=wrap;connectable=0;overflow=hidden;top=0;left=0;bottom=0;right=0;pointerEvents=1;" parent="qiMS5X3NjVRDsY-8KbQ8-537" vertex="1">
          <mxGeometry x="84" width="14" height="14" as="geometry">
            <mxRectangle width="14" height="14" as="alternateBounds" />
          </mxGeometry>
        </mxCell>
        <mxCell id="qiMS5X3NjVRDsY-8KbQ8-545" value="" style="shape=partialRectangle;html=1;whiteSpace=wrap;connectable=0;overflow=hidden;top=0;left=0;bottom=0;right=0;pointerEvents=1;" parent="qiMS5X3NjVRDsY-8KbQ8-537" vertex="1">
          <mxGeometry x="98" width="14" height="14" as="geometry">
            <mxRectangle width="14" height="14" as="alternateBounds" />
          </mxGeometry>
        </mxCell>
        <mxCell id="qiMS5X3NjVRDsY-8KbQ8-546" value="" style="shape=partialRectangle;html=1;whiteSpace=wrap;connectable=0;overflow=hidden;top=0;left=0;bottom=0;right=0;pointerEvents=1;" parent="qiMS5X3NjVRDsY-8KbQ8-537" vertex="1">
          <mxGeometry x="112" width="14" height="14" as="geometry">
            <mxRectangle width="14" height="14" as="alternateBounds" />
          </mxGeometry>
        </mxCell>
        <mxCell id="qiMS5X3NjVRDsY-8KbQ8-547" value="" style="shape=partialRectangle;html=1;whiteSpace=wrap;connectable=0;overflow=hidden;top=0;left=0;bottom=0;right=0;pointerEvents=1;" parent="qiMS5X3NjVRDsY-8KbQ8-537" vertex="1">
          <mxGeometry x="126" width="14" height="14" as="geometry">
            <mxRectangle width="14" height="14" as="alternateBounds" />
          </mxGeometry>
        </mxCell>
        <mxCell id="qiMS5X3NjVRDsY-8KbQ8-548" value="" style="shape=tableRow;horizontal=0;startSize=0;swimlaneHead=0;swimlaneBody=0;strokeColor=inherit;top=0;left=0;bottom=0;right=0;collapsible=0;dropTarget=0;fillColor=none;points=[[0,0.5],[1,0.5]];portConstraint=eastwest;" parent="qiMS5X3NjVRDsY-8KbQ8-481" vertex="1">
          <mxGeometry y="92" width="140" height="18" as="geometry" />
        </mxCell>
        <mxCell id="qiMS5X3NjVRDsY-8KbQ8-549" value="" style="shape=partialRectangle;html=1;whiteSpace=wrap;connectable=0;overflow=hidden;top=0;left=0;bottom=0;right=0;pointerEvents=1;" parent="qiMS5X3NjVRDsY-8KbQ8-548" vertex="1">
          <mxGeometry width="14" height="18" as="geometry">
            <mxRectangle width="14" height="18" as="alternateBounds" />
          </mxGeometry>
        </mxCell>
        <mxCell id="qiMS5X3NjVRDsY-8KbQ8-550" value="" style="shape=partialRectangle;html=1;whiteSpace=wrap;connectable=0;overflow=hidden;top=0;left=0;bottom=0;right=0;pointerEvents=1;" parent="qiMS5X3NjVRDsY-8KbQ8-548" vertex="1">
          <mxGeometry x="14" width="14" height="18" as="geometry">
            <mxRectangle width="14" height="18" as="alternateBounds" />
          </mxGeometry>
        </mxCell>
        <mxCell id="qiMS5X3NjVRDsY-8KbQ8-551" value="" style="shape=partialRectangle;html=1;whiteSpace=wrap;connectable=0;overflow=hidden;top=0;left=0;bottom=0;right=0;pointerEvents=1;" parent="qiMS5X3NjVRDsY-8KbQ8-548" vertex="1">
          <mxGeometry x="28" width="14" height="18" as="geometry">
            <mxRectangle width="14" height="18" as="alternateBounds" />
          </mxGeometry>
        </mxCell>
        <mxCell id="qiMS5X3NjVRDsY-8KbQ8-552" value="" style="shape=partialRectangle;html=1;whiteSpace=wrap;connectable=0;overflow=hidden;top=0;left=0;bottom=0;right=0;pointerEvents=1;" parent="qiMS5X3NjVRDsY-8KbQ8-548" vertex="1">
          <mxGeometry x="42" width="14" height="18" as="geometry">
            <mxRectangle width="14" height="18" as="alternateBounds" />
          </mxGeometry>
        </mxCell>
        <mxCell id="qiMS5X3NjVRDsY-8KbQ8-553" value="" style="shape=partialRectangle;html=1;whiteSpace=wrap;connectable=0;overflow=hidden;top=0;left=0;bottom=0;right=0;pointerEvents=1;" parent="qiMS5X3NjVRDsY-8KbQ8-548" vertex="1">
          <mxGeometry x="56" width="14" height="18" as="geometry">
            <mxRectangle width="14" height="18" as="alternateBounds" />
          </mxGeometry>
        </mxCell>
        <mxCell id="qiMS5X3NjVRDsY-8KbQ8-554" value="" style="shape=partialRectangle;html=1;whiteSpace=wrap;connectable=0;overflow=hidden;top=0;left=0;bottom=0;right=0;pointerEvents=1;" parent="qiMS5X3NjVRDsY-8KbQ8-548" vertex="1">
          <mxGeometry x="70" width="14" height="18" as="geometry">
            <mxRectangle width="14" height="18" as="alternateBounds" />
          </mxGeometry>
        </mxCell>
        <mxCell id="qiMS5X3NjVRDsY-8KbQ8-555" value="" style="shape=partialRectangle;html=1;whiteSpace=wrap;connectable=0;overflow=hidden;top=0;left=0;bottom=0;right=0;pointerEvents=1;" parent="qiMS5X3NjVRDsY-8KbQ8-548" vertex="1">
          <mxGeometry x="84" width="14" height="18" as="geometry">
            <mxRectangle width="14" height="18" as="alternateBounds" />
          </mxGeometry>
        </mxCell>
        <mxCell id="qiMS5X3NjVRDsY-8KbQ8-556" value="" style="shape=partialRectangle;html=1;whiteSpace=wrap;connectable=0;overflow=hidden;top=0;left=0;bottom=0;right=0;pointerEvents=1;" parent="qiMS5X3NjVRDsY-8KbQ8-548" vertex="1">
          <mxGeometry x="98" width="14" height="18" as="geometry">
            <mxRectangle width="14" height="18" as="alternateBounds" />
          </mxGeometry>
        </mxCell>
        <mxCell id="qiMS5X3NjVRDsY-8KbQ8-557" value="" style="shape=partialRectangle;html=1;whiteSpace=wrap;connectable=0;overflow=hidden;top=0;left=0;bottom=0;right=0;pointerEvents=1;" parent="qiMS5X3NjVRDsY-8KbQ8-548" vertex="1">
          <mxGeometry x="112" width="14" height="18" as="geometry">
            <mxRectangle width="14" height="18" as="alternateBounds" />
          </mxGeometry>
        </mxCell>
        <mxCell id="qiMS5X3NjVRDsY-8KbQ8-558" value="" style="shape=partialRectangle;html=1;whiteSpace=wrap;connectable=0;overflow=hidden;top=0;left=0;bottom=0;right=0;pointerEvents=1;" parent="qiMS5X3NjVRDsY-8KbQ8-548" vertex="1">
          <mxGeometry x="126" width="14" height="18" as="geometry">
            <mxRectangle width="14" height="18" as="alternateBounds" />
          </mxGeometry>
        </mxCell>
        <mxCell id="qiMS5X3NjVRDsY-8KbQ8-637" value="" style="shape=flexArrow;endArrow=classic;html=1;rounded=0;strokeColor=none;fillColor=#c6c3c3;gradientColor=#faf4f4;shadow=0;" parent="1" edge="1">
          <mxGeometry width="50" height="50" relative="1" as="geometry">
            <mxPoint x="470" y="284.5" as="sourcePoint" />
            <mxPoint x="530" y="285" as="targetPoint" />
          </mxGeometry>
        </mxCell>
      </root>
    </mxGraphModel>
  </diagram>
</mxfile>
